<svg width="76" height="76" fill="none" xmlns="http://www.w3.org/2000/svg"><path d="M74.6721 60.7524v13.9219H21.5158l-1.8289-2.7432c-.0923-.1384-.1565-.2935-.1888-.4567-.0323-.1631-.0321-.3311.0005-.4942.0326-.163.097-.3181.1896-.4563.0926-.1381.2115-.2567.3499-.3489l2.7433-1.8288v-5.0625l-4.012-10.0285-1.0505-2.6278-1.4238-2.8476-2.1991-4.3965c-1.7786-3.5591-2.7047-7.4831-2.7052-11.4618v-8.4259L5.14489 21.711c-.77541-.2213-1.46858-.6659-1.9932-1.2783-.52463-.6124-.85754-1.3656-.95729-2.1658l-.31482-2.5186-.61383-4.909h8.85935l1.6374-3.27481c1.0127-2.025 2.6058-3.70233 4.576-4.81789 1.9702-1.11556 4.2282-1.61877 6.4856-1.44538l4.8236.37178a8.22663 8.22663 0 0 1 3.5264 1.10327c1.0766.63039 1.9957 1.4974 2.6878 2.53541l5.3726 8.05882 3.4315 5.6084c3.5878 5.8601 8.2322 11.0034 13.6972 15.1685l8.2424 6.2791c3.1292 2.3845 5.6657 5.4594 7.4117 8.985 1.7461 3.5256 2.6546 7.4067 2.6548 11.3409Z" fill="#F3AF3E"/><path d="m24.8586 9.99396-1.1021 7.16324c-.2832 1.841.0252 3.7244.8808 5.3789.8556 1.6545 2.2142 2.9948 3.8802 3.8278 1.2216.6108 2.5687.9288 3.9345.9288h1.72V10.3561c0-.51438-.1197-1.02168-.3498-1.48175-.2751-.55045-.6981-1.0134-1.2215-1.33698-.5235-.32357-1.1267-.49498-1.7421-.49501h-2.56c-.8315.00002-1.6354.29766-2.2664.83906-.6309.54139-1.0473 1.29078-1.1736 2.11254ZM60.6315 67.6169c-.1023.2178-.2645.402-.4676.5312-.2031.1291-.4387.1978-.6794.1981H49.0922c-.9358.0012-1.8328.3734-2.4945 1.0351-.6616.6616-1.0339 1.5587-1.035 2.4944v2.7986h-2.5313v-2.7986c.0015-1.6069.6405-3.1476 1.7768-4.2839 1.1363-1.1363 2.677-1.7753 4.284-1.7768h7.695c-3.1663-3.9497-4.8932-8.8598-4.8964-13.9219 0-.3357.1333-.6576.3707-.895.2373-.2373.5592-.3707.8949-.3707s.6576.1334.8949.3707c.2374.2374.3707.5593.3707.895.0029 4.6098 1.6187 9.0733 4.5674 12.6167l1.4681 1.7608c.1535.1849.2514.4096.2822.6479.0308.2383-.0067.4805-.1082.6984Z" fill="#C38325"/><path d="M68.3439 32.9087c0 .4255-.0126.8464-.0395 1.2656-.0269.4256-.067.8474-.1202 1.2656-.274 2.2183-.9178 4.3749-1.9048 6.3804-1.2867 2.6217-3.1243 4.9346-5.3873 6.7806s-4.8979 3.1816-7.7246 3.9155c-.0034.0018-.0072.0028-.0111.0031-2.7853.7193-5.6919.8367-8.5262.3446-2.8343-.4921-5.5312-1.5824-7.9111-3.1985-2.3799-1.616-4.3881-3.7206-5.8909-6.1735-1.5028-2.453-2.4657-5.198-2.8245-8.0522-.0538-.4176-.0939-.8395-.1202-1.2656-.0269-.4192-.0396-.8401-.0396-1.2656.0004-4.368 1.413-8.6188 4.027-12.1183 2.6141-3.4994 6.2896-6.0598 10.478-7.2993 4.1885-1.2394 8.6654-1.0915 12.7629.4219 4.0975 1.5133 7.5958 4.3108 9.9732 7.9752.291.4477.5647.9076.821 1.3796 1.605 2.9596 2.4432 6.2741 2.4379 9.6409Z" fill="#C0F5F9"/><path d="M6.32825 10.8392v1.079c.00014.7762-.25916 1.5303-.73671 2.1423-.47755.6119-1.14594 1.0468-1.89896 1.2353l-1.813.4525-.61383-4.9091h5.0625ZM17.7189 12.1052c1.3979 0 2.5312-1.1333 2.5312-2.53122 0-1.39798-1.1333-2.53126-2.5312-2.53126-1.398 0-2.5313 1.13328-2.5313 2.53126 0 1.39792 1.1333 2.53122 2.5313 2.53122Z" fill="#C38325"/><path d="M44.297 59.4868h7.5938v15.1875H44.297V59.4868Z" fill="#428DC5"/><path d="M68.3044 34.1742c-.0269.4256-.067.8474-.1202 1.2656-.274 2.2183-.9178 4.3749-1.9048 6.3804-1.2867 2.6217-3.1243 4.9346-5.3873 6.7806s-4.8979 3.1816-7.7246 3.9155c-.0034.0018-.0072.0028-.0111.0031-2.7853.7193-5.6919.8367-8.5262.3446-2.8343-.4921-5.5312-1.5824-7.9111-3.1985-2.3799-1.616-4.3881-3.7206-5.8909-6.1735-1.5028-2.453-2.4657-5.198-2.8245-8.0522-.0538-.4176-.0939-.8395-.1202-1.2656h40.4209Z" fill="#EEB58E"/><path d="M40.5002 37.9712h2.5312v2.5312h-2.5312v-2.5312Z" fill="#F55648"/><path d="M40.5002 44.2993h2.5312v2.5313h-2.5312v-2.5313Z" fill="#B94137"/><path d="M51.8908 44.2993h2.5312v2.5313h-2.5312v-2.5313ZM56.9533 44.2993h2.5313v2.5313h-2.5313v-2.5313Z" fill="#F55648"/><path d="M54.4221 40.5024h2.5312v2.5313h-2.5312v-2.5313Z" fill="#B94137"/><path d="m30.0049 69.2416-1.7987 1.7972 1.9569 2.9331c.1386.208.2124.4525.212.7024h-2.7875l-1.4871-2.2322c-.3229-.4872-.4678-1.0709-.4102-1.6526.0577-.5817.3143-1.1256.7266-1.54l1.427-1.4269v-6.5022l-9.0746-8.0652-1.0504-2.6278-1.4239-2.8476c.1444.0542.2774.1346.3924.2373l13.2622 11.7893c.1338.1186.2409.2643.3142.4274.0734.1631.1113.3398.1113.5187v7.5937c.0002.3357-.133.6578-.3702.8954ZM37.9689 58.2212v16.4531h-2.5313V58.604l-2.3192-3.4773c-.1863-.2794-.254-.6214-.1881-.9508.0659-.3293.2599-.619.5393-.8053.2794-.1863.6214-.2539.9508-.188.3293.0658.619.2598.8053.5393l2.5312 3.7968c.1379.2084.2116.4526.212.7025Z" fill="#C38325"/><path d="M68.3044 34.1742c-.0269.4256-.067.8474-.1202 1.2656H28.0037l-.1202-1.2656h40.4209Z" fill="#BD9070"/><path d="M54.3195 18.9868c-4.1464 5.8051-6.7014 12.5942-7.4113 19.6926l-.0679.6778c-.0358.3579.0084.7194.1294 1.0581.1209.3388.3157.6465.57.9009.2256.2255.4933.4045.788.5265.2946.1221.6105.1849.9294.1849.319 0 .6348-.0628.9295-.1849.2946-.122.5624-.301.7879-.5265l.1025-.1024c.2256-.2255.4046-.4932.5268-.7879.1221-.2947.185-.6105.1851-.9295v-5.3522c0-3.3423.4099-6.672 1.2206-9.9146l1.31-5.2428ZM65.906 23.2677l-.2404.9619a40.831056 40.831056 0 0 0-1.2214 9.9146v5.352c-.0003.6441-.2557 1.2618-.7103 1.7181l-.1028.1012c-.3542.3543-.8093.5903-1.3029.6758-.4936.0854-1.0015.0162-1.4542-.1983-.4527-.2145-.828-.5637-1.0745-.9998-.2465-.4361-.3521-.9378-.3023-1.4362l.0665-.6771c.593-5.9331 2.4775-11.6645 5.5213-16.7917.2911.4477.5647.9075.821 1.3795ZM39.132 18.9868c-4.1464 5.8051-6.7014 12.5942-7.4113 19.6926l-.0679.6778c-.0358.3579.0084.7194.1294 1.0581.1209.3388.3156.6465.57.9009.2256.2255.4933.4045.788.5265.2946.1221.6105.1849.9294.1849.319 0 .6348-.0628.9295-.1849.2946-.122.5624-.301.7879-.5265l.1025-.1024c.2256-.2255.4046-.4932.5268-.7879.1221-.2947.185-.6105.1851-.9295v-5.3522c0-3.3423.4099-6.672 1.2206-9.9146l1.31-5.2428Z" fill="#744630"/><path d="M69.6096 32.9086c0-11.8638-9.652-21.5156-21.5157-21.5156-11.8636 0-21.5156 9.6518-21.5156 21.5156 0 10.1205 7.0242 18.6297 16.4531 20.9126v5.6656h10.125v-5.6656c9.4289-2.2829 16.4532-10.7921 16.4532-20.9126ZM48.0939 51.893c-3.7547 0-7.4252-1.1134-10.5471-3.1994-3.122-2.086-5.5553-5.051-6.9922-8.5199-1.4369-3.469-1.8128-7.2861-1.0803-10.9687.7325-3.6826 2.5406-7.0653 5.1956-9.7203 2.655-2.6551 6.0377-4.4631 9.7204-5.1957 3.6826-.7325 7.4997-.3565 10.9686 1.0804 3.469 1.4368 6.4339 3.8701 8.52 6.9921 2.086 3.122 3.1994 6.7924 3.1994 10.5471-.0057 5.0333-2.0076 9.8587-5.5667 13.4178-3.559 3.559-8.3845 5.5609-13.4177 5.5666Z" fill="#428DC5"/><path d="M44.297 59.4868h7.5938v2.5313H44.297v-2.5313Z" fill="#3775A4"/><path d="M17.7189 12.1052c1.3979 0 2.5312-1.1333 2.5312-2.53122 0-1.39798-1.1333-2.53126-2.5312-2.53126-1.398 0-2.5313 1.13328-2.5313 2.53126 0 1.39792 1.1333 2.53122 2.5313 2.53122ZM40.5002 37.9712h2.5312v2.5312h-2.5312v-2.5312ZM40.5002 44.2993h2.5312v2.5313h-2.5312v-2.5313ZM51.8908 44.2993h2.5312v2.5313h-2.5312v-2.5313ZM56.9533 44.2993h2.5313v2.5313h-2.5313v-2.5313ZM54.4221 40.5024h2.5312v2.5313h-2.5312v-2.5313Z" fill="#000"/><path d="M.93858 18.4238c.1294 1.0469.56439 2.0325 1.25064 2.8336.68625.8011 1.59333 1.3823 2.60794 1.6709l5.32794 1.5223v7.4703c.005 4.1747.9768 8.2914 2.8393 12.0276l3.5988 7.1982 4.9526 12.3807v4.1415l-2.1802 1.4534c-.2766.1844-.5142.4214-.6992.6976-.1849.2762-.3137.5861-.3789.9121-.0652.3259-.0655.6615-.001.9876.0645.3261.1926.6363.377.9129l1.8293 2.7439c.1155.1733.2721.3154.4558.4137.1837.0984.3888.1498.5972.1498h53.1563c.3356 0 .6575-.1334.8949-.3707.2373-.2374.3707-.5593.3707-.8949V60.7524c-.0027-3.5859-.7234-7.135-2.1196-10.4379-1.3962-3.3029-3.4396-6.2929-6.0097-8.7935.9668-2.203 1.5544-4.5536 1.7379-6.9524.0684-.2073.0817-.4288.0387-.6428.0158-.3371.0247-.6761.0247-1.0172.0041-3.4061-.8054-6.7639-2.3612-9.7939l.9553-3.8211c.0713-.2858.0407-.5876-.0866-.8533-.1273-.2658-.3433-.4787-.6108-.6023-.2674-.1235-.5696-.1498-.8545-.0744-.2848.0754-.5344.2478-.7057.4875-.3226.4517-.6355.9094-.9386 1.373-2.8375-3.6182-6.7603-6.2312-11.1924-7.4554-4.4322-1.2241-9.14-.9949-13.4323.6541l-.069-.1126c-.0083-.014-.0172-.0279-.0264-.0415l-5.3719-8.05871c-.7953-1.20084-1.855-2.20361-3.0978-2.93142C30.5749.950762 29.1819.517248 27.7455.411272l-4.8239-.37162c-2.5094-.19946-5.021.356747-7.2115 1.597008-2.1905 1.24027-3.9597 3.10781-5.0797 5.3622L9.34297 9.57361H1.26574a1.26574 1.26574 0 0 0-.52076.11205 1.265367 1.265367 0 0 0-.428534.31644c-.118782.1346-.207545.293-.260394.4647a1.265308 1.265308 0 0 0-.046125.5306l.928653 7.4264ZM27.8439 67.822l-1.427 1.4268c-.4126.4145-.6694.9587-.7271 1.5407-.0576.5819.0874 1.166.4107 1.6533l.6442.9658H22.193l-1.4534-2.1802 2.7439-1.8293c.1733-.1155.3155-.2721.4138-.4558.0983-.1837.1497-.3888.1497-.5972v-5.0625c0-.161-.0307-.3205-.0905-.47l-3.0713-7.6785 6.9587 6.1857v6.5012Zm22.7813 5.5866h-5.0625V60.7524h5.0625v12.6562Zm1.2656-15.1875H44.297v-4.1324c2.5115.4474 5.0823.4474 7.5938 0v4.1324Zm14.3884-30.764c.531 1.7684.8002 3.6051.7991 5.4515h-1.3485c.0573-1.8277.2408-3.6492.5494-5.4515Zm-.5695 12.0392v-4.0565h1.1988c-.2144 1.6029-.6344 3.1715-1.2498 4.667.034-.2017.0512-.4059.0516-.6105h-.0006Zm.8815 4.3889c4.3676 4.5294 6.8104 10.575 6.8152 16.8672v12.6562h-20.25v-5.0625h6.3281c.2406.0001.4762-.0685.6792-.1976s.365-.3133.4671-.5312c.102-.2178.1399-.4603.1091-.6989-.0309-.2385-.129-.4634-.283-.6482l-1.4669-1.76c-2.6157-3.1264-4.1897-6.9915-4.5023-11.0557 5.0744-1.5923 9.3838-4.9993 12.1041-9.5693h-.0006ZM53.1564 65.8149v-5.0625c.1792-.0001.3562-.0384.5194-.1123.7967 1.8584 1.8435 3.5995 3.1112 5.1748h-3.6306ZM64.628 42.1087c.0578-.0577.1128-.1178.1662-.1787-1.6048 2.973-3.9742 5.4637-6.8635 7.2148-2.8892 1.7512-6.1936 2.6992-9.5717 2.7463-3.3782.0471-6.7077-.8085-9.6446-2.4785-2.9369-1.6699-5.3748-4.0937-7.0618-7.0208.7059.6114 1.6172.9326 2.5504.8991.9333-.0336 1.8191-.4196 2.4792-1.0801l.1021-.1021c.3441-.3422.617-.7493.8028-1.1977.1858-.4485.2807-.9293.2794-1.4147v-4.0565h8.2133c-.1816 1.0306-.3252 2.0684-.4309 3.1135l-.0679.6779c-.0759.7583.0846 1.5216.4595 2.1852.3749.6635.9459 1.1949 1.6346 1.5212.6888.3264 1.4616.4317 2.2125.3016.751-.1301 1.4433-.4892 1.9821-1.0283l.1021-.102c.3442-.3422.617-.7494.8028-1.1978.1858-.4484.2808-.9292.2795-1.4146v-4.0567h5.682c-.1816 1.0306-.3253 2.0684-.431 3.1135l-.0678.6779c-.0759.7583.0846 1.5216.4595 2.1852.3749.6635.9458 1.1949 1.6346 1.5212.6887.3264 1.4615.4317 2.2125.3016.7509-.1301 1.4433-.4892 1.9821-1.0283l.102-.1022Zm-31.7159-2.6261.0679-.6779c.3936-3.9235 1.3704-7.7663 2.8981-11.4016-.3611 2.229-.5426 4.4835-.5428 6.7415v5.3522c.0004.1529-.0296.3043-.0881.4456-.0586.1412-.1447.2694-.2532.3771l-.102.1022c-.1697.1696-.3876.2826-.624.3235-.2364.0409-.4797.0077-.6965-.095s-.3965-.27-.5146-.4789c-.118-.2088-.1686-.449-.1448-.6878v-.0009Zm15.1875 0 .0679-.6779c.3936-3.9235 1.3704-7.7663 2.8981-11.4016-.3611 2.229-.5426 4.4835-.5428 6.7415v5.3522c.0004.1529-.0296.3043-.0881.4456-.0586.1412-.1446.2694-.2531.3771l-.1021.1022c-.1697.1696-.3876.2826-.624.3235-.2364.0409-.4797.0077-.6965-.095s-.3965-.27-.5146-.4789c-.118-.2088-.1686-.449-.1448-.6878v-.0009Zm15.0795-5.3391v5.3522c.0004.1529-.0296.3043-.0882.4456-.0585.1412-.1446.2694-.2531.3771l-.102.1022a1.1635 1.1635 0 0 1-.6241.3235c-.2364.0409-.4796.0077-.6964-.095-.2168-.1028-.3966-.27-.5146-.4789-.1181-.2088-.1686-.4491-.1448-.6878l.0678-.6779c.3937-3.9234 1.3705-7.7662 2.8982-11.4014-.3611 2.2289-.5427 4.4831-.5428 6.7411v-.0007ZM38.0553 13.8834c-.9106.4825-1.7853 1.0296-2.6177 1.6372v-5.1645c0-.1445-.0087-.2889-.0226-.43286l2.6403 3.96016Zm10.0386.0408c3.0362.0005 6.028.7296 8.724 2.1262 2.696 1.3965 5.0175 3.4196 6.7695 5.8993-1.9462 3.4331-3.4017 7.1219-4.3243 10.9589h-6.1896c.0884-2.8241.4783-5.6307 1.1631-8.372l1.3107-5.243c.0714-.2858.0408-.5876-.0865-.8533-.1273-.2658-.3433-.4787-.6108-.6023-.2675-.1235-.5697-.1498-.8545-.0744-.2848.0754-.5344.2478-.7057.4875-3.148 4.4115-5.417 9.3879-6.683 14.6575H37.886c.0884-2.8241.4783-5.6307 1.1631-8.372l1.3107-5.243c.0714-.2858.0408-.5876-.0865-.8533-.1273-.2658-.3433-.4787-.6108-.6023-.2675-.1235-.5697-.1498-.8545-.0744-.2848.0754-.5344.2478-.7057.4875-3.148 4.4115-5.417 9.3879-6.683 14.6575h-2.3098c.0057-5.0332 2.0077-9.8587 5.5667-13.4177 3.559-3.559 8.3845-5.561 13.4177-5.5667ZM30.3785 39.7317c-.5343-1.3823-.9034-2.8229-1.0999-4.2919h1.6137c-.1816 1.0306-.3253 2.0684-.4309 3.1135l-.0679.6779c-.0162.1663-.0212.3335-.015.5005Zm-2.1768-15.018c-1.1747-.7992-2.0986-1.9153-2.664-3.2188-.5655-1.3035-.7493-2.7407-.5302-4.1445l1.102-7.1631c.0779-.52415.3421-1.00266.7441-1.34782.4021-.34517.9151-.53386 1.445-.53149h2.56c.3806-.00127.7539.10412 1.0777.30422.3237.20009.5849.48689.754.82788.1418.28456.2157.59811.2161.91601v7.327c-2.0165 2.0104-3.6154 4.3998-4.7047 7.0306ZM7.58596 12.1049h2.53914c.2351 0 .4654-.0655.6654-.1891.1999-.1235.3615-.3003.4666-.5105l1.6374-3.27482c.8959-1.80342 2.3111-3.29739 4.0634-4.28959 1.7523-.9922 3.7615-1.43721 5.7689-1.27774l4.8241.37178c1.0534.07765 2.075.39554 2.9864.92929.9114.53374 1.6885 1.26915 2.2716 2.14982l.1946.29189a4.580235 4.580235 0 0 0-2.1449-.52919h-2.56c-1.1352-.00529-2.2342.39867-3.0958 1.13785-.8615.73918-1.4278 1.76406-1.5951 2.88684l-1.1021 7.16347c-.3108 1.9916-.0142 4.0307.851 5.8513.8652 1.8206 2.259 3.3383 3.9996 4.355-.5172 1.8686-.7789 3.7986-.7779 5.7374 0 .3411.0088.6803.0246 1.0172-.043.214-.0296.4355.0388.6428.3397 4.3029 1.9627 8.4048 4.659 11.7752s6.3419 5.8542 10.4652 7.1301v6.0128c0 .3357.1334.6576.3707.895.2374.2373.5593.3707.895.3707v12.6562h-5.0627V58.2211c0-.2499-.074-.4942-.2126-.7021l-2.5313-3.7969c-.0918-.1392-.2101-.2589-.3484-.3523a1.267021 1.267021 0 0 0-.4569-.1916 1.265536 1.265536 0 0 0-.4955-.0014c-.1636.0321-.3193.0963-.458.1888-.1388.0925-.2579.2116-.3505.3503-.0926.1387-.1569.2943-.1891.4579-.0323.1636-.0319.332.0011.4955.0331.1635.0981.3188.1913.457l2.3186 3.478v14.8043h-5.6508l-1.579-2.37 1.7975-1.7975c.237-.2375.3701-.5594.3698-.895v-7.5937c0-.1788-.0379-.3555-.1111-.5185-.0732-.163-.1802-.3087-.3138-.4274l-11.2084-9.9632-3.5134-7.0267c-1.6871-3.3846-2.5675-7.1139-2.572-10.8957v-8.4254c0-.275-.0895-.5425-.2551-.762-.1656-.2196-.3981-.3793-.6625-.4549l-6.24666-1.7844c-.53696-.1527-1.017-.4603-1.38013-.8844a2.84009 2.84009 0 0 1-.66164-1.4997l-.17544-1.4052.7252-.1809c.99576-.2487 1.88381-.8141 2.5305-1.6111.6467-.797 1.01706-1.7824 1.05533-2.808Zm-2.53125 0c-.0382.4606-.21972.8976-.51908 1.2498-.29936.3521-.70151.6016-1.14996.7135l-.42715.1068-.25914-2.0701h2.35533Z" fill="#000"/></svg>