<svg width="54" height="78" fill="none" xmlns="http://www.w3.org/2000/svg"><path d="M52.8656 38.7227c0 3.3413-2.7091 6.0504-6.0504 6.0504s-6.0504-2.7091-6.0504-6.0504c0-3.3414 2.7091-6.0505 6.0504-6.0505s6.0504 2.7091 6.0504 6.0505Z" fill="#89CEEA"/><path d="M46.8151 32.6722c-.8024 0-1.5681.1578-2.2689.4414 2.2169.8981 3.7815 3.0701 3.7815 5.6091 0 2.5389-1.5646 4.7109-3.7815 5.609.7008.2836 1.4665.4414 2.2689.4414 3.3413 0 6.0504-2.7091 6.0504-6.0504 0-3.3414-2.7091-6.0505-6.0504-6.0505Z" fill="#78C0DE"/><path d="M37.437 60.0581v16.2528H1.13446V60.0581c0-5.6061 3.81933-10.3158 8.99114-11.653.4491-.117.9087-.2074 1.3761-.2712.5324-.0726 1.0742-.1105 1.6261-.1105h12.3159c.5518 0 1.0937.0379 1.626.1105.4715.0638.933.156 1.3856.2742 5.1671 1.3383 8.9817 6.0475 8.9817 11.65Z" fill="#E8E1D5"/><path d="M28.4553 48.4081c-.4526-.1182-.914-.2104-1.3856-.2742-.5323-.0726-1.0741-.1105-1.626-.1105h-4.5378c.5518 0 1.0937.0379 1.626.1105.4715.0638.933.156 1.3856.2742 5.1671 1.3383 8.9817 6.0475 8.9817 11.65v16.2528h4.5378V60.0581c0-5.6025-3.8146-10.3117-8.9817-11.65Z" fill="#D6CFC4"/><path d="m28.4553 48.4081-9.1648 27.9028-9.1649-27.9058c.4491-.117.9088-.2074 1.3761-.2712.5324-.0726 1.0742-.1105 1.6261-.1105h12.3159c.5519 0 1.0937.0379 1.626.1105.4715.0638.933.156 1.3856.2742Z" fill="#FF573D"/><path d="M26.1302 48.0229c.546 0 .9454.5146.8107 1.044-.6718 2.64-3.8441 4.6401-7.6552 4.6401-3.8111 0-6.9834-2.0001-7.6552-4.6401-.1347-.5294.2647-1.044.8107-1.044h2.3486v-8.8358h8.9918v8.8358h2.3486Z" fill="#EBA28C"/><path d="M19.2857 76.311c.0461-.3923-3.8654-25.1246-4.5225-29.276-.052-.3262-.3562-.5501-.6836-.5028l-6.28202.9016c-.28243.0408-.4981.273-.51759.5578l-.56014 8.21 2.64056 1.6066-.73622 3.8394L19.2857 76.311Z" fill="#C4BEB4"/><path d="M19.2863 76.311c-.0461-.3923 3.8648-25.1246 4.5224-29.276.0515-.3262.3563-.5501.6837-.5028l6.282.9016c.2824.0408.4981.273.5176.5578l.5601 8.21-2.6405 1.6066.7356 3.8394L19.2863 76.311Z" fill="#C4BEB4"/><path d="M8.24369 24.353c0 2.2553-1.63905 4.084-3.66039 4.084-2.02133 0-3.29759-2.0952-3.29759-4.3505 0-2.6619 1.27626-3.8176 3.29759-3.8176 2.02134 0 3.66039 1.8287 3.66039 4.0841ZM30.3277 24.353c0 2.2553 1.639 4.084 3.6604 4.084 2.0213 0 3.2976-2.0952 3.2976-4.3505 0-2.6619-1.2763-3.8176-3.2976-3.8176-2.0214 0-3.6604 1.8287-3.6604 4.0841Z" fill="#EBA28C"/><path d="M5.97479 29.6081v-9.8485c0-6.9314 5.61911-12.55049 12.55051-12.55049h1.5209c6.9314 0 12.5504 5.61909 12.5504 12.55049v9.8485c0 7.345-5.9541 13.2985-13.2985 13.2985h-.0248c-7.3444 0-13.29851-5.9535-13.29851-13.2985Z" fill="#FCC19C"/><path d="M20.0461 7.20911h-1.5208c-.5111 0-1.014.03427-1.5085.09335 6.2194.74567 11.042 6.03684 11.042 12.45714v9.8485c0 6.5757-4.7724 12.0352-11.042 13.107.7332.1259 1.4872.1915 2.2565.1915h.0248c7.3444 0 13.2985-5.9535 13.2985-13.2985v-9.8485c0-6.9314-5.6191-12.55049-12.5505-12.55049Z" fill="#EBA28C"/><path d="M5.97477 24.2389c0 .0963.08745.1678.18198.1483.60505-.1276 2.52239-.6505 2.69197-2.1773.20148-1.8151 3.64028-6.958 9.08098-7.462 3.9617-.3675 5.8867-2.4456 6.6407-3.5481.1506-.2204.4898-.1566.5459.104.3002 1.3997 1.1173 4.3204 2.9466 5.9653 2.4178 2.1744 1.6905 6.958 4.3677 7.1465.0892.0059.166-.0621.166-.1513v-3.7791c0-.4006.325-.7256.7256-.7256h.0662c.3362 0 .6286-.2293.706-.5566.3286-1.3862 1.0299-5.092-.0242-7.9849-1.3223-3.63025-5.0264-5.14286-5.0264-5.14286s-1.2568-4.94078-8.961-4.94078c-7.7049 0-10.72653 3.24442-10.72653 3.24442s-5.85189 5.017-5.34789 9.40712c.33857 2.9507.46796 4.8752.51582 5.82.02009.3858.33857.6883.72499.6883.40061 0 .72558.325.72558.7256v3.219Z" fill="#633327"/><path d="M34.0702 11.2187c-1.3223-3.63026-5.0264-5.14346-5.0264-5.14346s-1.2568-4.94078-8.961-4.94078c-.9041 0-1.7407.04609-2.5183.12467 5.911.76753 6.9415 4.81611 6.9415 4.81611s3.7041 1.5132 5.0264 5.14346c1.0541 2.8923.3522 6.5981.0236 7.9849-.02.0857-.0561.1648-.1034.2346.8816 2.2376 1.0175 4.8397 2.978 4.9774.0892.0059.166-.0621.166-.1513v-3.7791c0-.4006.325-.7256.7256-.7256h.0662c.3356 0 .6281-.2293.7055-.5566.3291-1.3862 1.0304-5.092-.0237-7.9843ZM13.3918 14.7479c-4.03674.374-6.96918 3.3011-8.29744 5.5287.04963.0106.10163.0177.15481.0177.4006 0 .72557.325.72557.7256v3.219c0 .0963.08745.1678.18199.1483.60504-.1276 2.52239-.6505 2.69196-2.1767.20149-1.8151 3.64031-6.958 9.08091-7.4626 1.3697-.127 2.4958-.4585 3.414-.8833-2.4863.3539-3.99.5164-7.9518.8833Z" fill="#572D22"/><path d="M17.0888 26.1987c0 2.0882-1.6928 3.7816-3.7815 3.7816s-3.78148-1.6934-3.78148-3.7816c0-2.0886 1.69278-3.7815 3.78148-3.7815 2.0887 0 3.7815 1.6929 3.7815 3.7815ZM29.0456 26.1987c0 2.0882-1.6928 3.7816-3.7815 3.7816s-3.7816-1.6934-3.7816-3.7816c0-2.0886 1.6929-3.7815 3.7816-3.7815 2.0887 0 3.7815 1.6929 3.7815 3.7815Z" fill="#CEE8F2"/><path d="M54 38.7227c0-3.9617-3.2231-7.1849-7.1849-7.1849-3.9617 0-7.1848 3.2232-7.1848 7.1849 0 3.5759 2.6257 6.5491 6.0504 7.0945v1.4535c0 4.5644-3.2823 8.3748-7.6103 9.1997-.8709-3.0719-2.8403-5.7692-5.576-7.5199l-.0709-1.0364c-.0555-.813-.6812-1.4872-1.4878-1.6036l-1.9947-.2859c3.9316-2.0562 6.6224-6.1728 6.6224-10.9085V29.24c1.7028-.7528 2.8568-2.7204 2.8568-5.1535 0-2.6447-1.1416-4.3411-3.1777-4.8156.3752-1.6573 1.0015-5.401-.1063-8.441-1.1936-3.27515-4.0427-5.00105-5.1843-5.58069C29.3487 3.79865 27.0993 0 20.0828 0 12.4317 0 9.04963 3.08193 8.57931 3.55108c-.57609.50223-6.24777 5.58068-5.69768 10.36432.29484 2.5679.42838 4.3475.48746 5.3461-2.06151.4609-3.217829 2.1625-3.217829 4.825 0 2.4503 1.169909 4.4273 2.891089 5.1688v5.8608c0 4.7328 2.68782 8.8469 6.61528 10.9043l-2.02134.2901c-.80711.1164-1.43284.7906-1.48838 1.6036l-.07031 1.0364C2.3144 51.3583 0 55.5575 0 60.0581v7.7066c0 .6263.508141 1.1345 1.13445 1.1345.62632 0 1.13446-.5082 1.13446-1.1345v-7.7066c0-3.118 1.34125-6.0611 3.60366-8.1066l-.28479 4.1726c-.02896.4231.18021.8267.54182 1.0465l1.96816 1.197-.58791 3.0666c-.05909.3079.01241.6269.19675.8804l9.3516 12.8619H2.26891v-2.5904c0-.6263-.50814-1.1344-1.13446-1.1344C.508141 71.4517 0 71.9598 0 72.5861v3.7248c0 .6263.508141 1.1345 1.13445 1.1345H37.437c.6263 0 1.1344-.5082 1.1344-1.1345V60.0581c0-.4573-.0242-.9111-.0715-1.3602 5.3745-1.0263 9.4497-5.7585 9.4497-11.4272v-1.4535C51.3742 45.2718 54 42.2986 54 38.7227ZM35.7501 56.6382h-2.8533c.0668-.1601.0999-.3344.0874-.5141l-.2847-4.172c1.4074 1.2727 2.4573 2.8922 3.0506 4.6861Zm-5.0767-1.0476-1.6621 1.0116c-1.9794-.1673-3.7857-.9513-5.2238-2.1602.0614-.3918.7699-4.88 1.06-6.7134l5.342.7675.4839 7.0945ZM19.2739 44.041h.0236c1.1528 0 2.2743-.1365 3.349-.3929v1.5032h-6.7216v-1.5032c1.0748.2564 2.1962.3929 3.349.3929Zm-3.3011 3.3792h2.1997c.0237 1.8517.4822 3.6001 1.2775 5.1481-.055.0012-.1093.0036-.1643.0036-.8786 0-1.7495-.1235-2.5549-.3563-.2375-1.5026-.4898-3.0985-.758-4.7954Zm5.8708 4.7789c-.8651-1.3933-1.3744-3.0282-1.4022-4.7789h2.1579c-.2677 1.6904-.5194 3.281-.7557 4.7789Zm-2.5579 2.6417c.5436 0 1.0772-.0366 1.5995-.1081.153.1825.312.3586.475.5312-.9377 5.9547-1.603 10.2195-2.0739 13.279-.4875-3.1653-1.1829-7.6215-2.1732-13.9042.7031.133 1.4287.2021 2.1726.2021Zm5.6297-9.8284V42.903c4.1213-1.7483 7.2676-5.3585 8.379-9.7693v1.9824c0 4.9691-3.6308 9.104-8.379 9.8963Zm11.2359-20.9259c0 1.5811-.8089 3.216-2.1632 3.216-.0862 0-.1719-.0059-.257-.0159v-5.8673c.0851-.01.1708-.0159.257-.0159 1.0695 0 2.1632.319 2.1632 2.6831ZM10.0949 5.24035c.0319-.02718.0626-.05672.0916-.08804.0265-.02895 2.7681-2.8834 9.8963-2.8834 6.6495 0 7.8177 3.93041 7.8614 4.08639.0821.35629.3297.62868.6671.76931.0325.013 3.2657 1.38793 4.393 4.48229.8922 2.4485.3404 5.7154.0538 7.0371-.9011.1288-1.5959.9052-1.5959 1.8412v1.4612c-.1129-.3167-.2293-.6919-.3593-1.128-.4466-1.499-.9536-3.1989-2.2819-4.393-1.6172-1.4547-2.354-4.2324-2.5956-5.3597-.1206-.5614-.5625-.9962-1.1256-1.10732-.5649-.11108-1.1404.12462-1.4659.60092-.6872 1.005-2.3552 2.7386-5.8088 3.0589-.0484.0047-.0969.0094-.1448.0147-.6233.0668-1.0741.6258-1.0074 1.2485.0668.6234.6269 1.073 1.2485 1.0075.0378-.0042.0751-.0077.1129-.0113 3.151-.2924 5.1653-1.5646 6.3866-2.7522.5064 1.6343 1.3909 3.6444 2.8834 4.9869.8532.7675 1.2449 2.0828 1.6243 3.3549.4449 1.4913.9838 3.294 2.5336 3.8878v4.2525c0 6.708-5.4566 12.1646-12.1647 12.1646h-.0236c-6.7081 0-12.16466-5.4566-12.16466-12.1646V25.306c.61864-.2003 1.15218-.4756 1.58765-.8124-.19735.5317-.30548 1.1061-.30548 1.7052 0 2.7103 2.20509 4.916 4.91599 4.916 2.3203 0 4.2684-1.6166 4.7824-3.7816h2.3918c.5135 2.165 2.4621 3.7816 4.7824 3.7816 2.7103 0 4.916-2.2057 4.916-4.916 0-2.7109-2.2057-4.916-4.916-4.916-2.3203 0-4.2689 1.616-4.7824 3.7815h-2.3918c-.514-2.1655-2.4621-3.7815-4.7824-3.7815-1.3088 0-2.4988.5153-3.38093 1.3519.02127-.0981.03841-.1979.04963-.2996.0969-.8703 1.538-3.3371 3.9475-4.9502.5206-.3486.66-1.0535.312-1.574-.3486-.5206-1.0535-.66-1.574-.3114-2.8084 1.8795-4.75115 4.8817-4.94022 6.5851-.03427.3049-.28716.5548-.61214.7481v-1.8175c-.00177-.5324-.22807-1.0116-.58909-1.3502-.0124-.0124-.0254-.0248-.0384-.0372-.01005-.0088-.02068-.0171-.03073-.0254-.01654-.0142-.03367-.0283-.0514-.0413-.21921-.1738-.47801-.3002-.76103-.3605-.05909-1.0151-.19557-2.8656-.50341-5.544-.3557-3.1003 3.45949-7.12699 4.95972-8.41625Zm.5654 20.95845c0-1.4594 1.1877-2.6471 2.6471-2.6471s2.647 1.1877 2.647 2.6471-1.1876 2.6471-2.647 2.6471c-1.4594 0-2.6471-1.1877-2.6471-2.6471Zm11.9567 0c0-1.4594 1.1876-2.6471 2.647-2.6471 1.4595 0 2.6471 1.1877 2.6471 2.6471s-1.1876 2.6471-2.6471 2.6471c-1.4594 0-2.647-1.1877-2.647-2.6471ZM4.58331 21.4034c.08627 0 .17194.0071.25703.0171v5.8661c-.08509.01-.17076.0159-.25703.0159-1.35425 0-2.16314-1.6349-2.16314-3.216 0-2.3641 1.09368-2.6831 2.16314-2.6831Zm.72794 13.7127v-1.8465C6.4528 37.6184 9.57727 41.173 13.656 42.903v2.1029c-4.73104-.8065-8.34475-4.9325-8.34475-9.8898Zm4.63826 21.7224-2.05147-1.2479.40238-5.8885c.00059-.0071.00118-.0136.00118-.0207l.08095-1.1859 5.34195-.7669c.2907 1.8382 3.128 19.8943 3.7863 24.2123L9.83075 61.3781l.64345-3.3567c.0892-.465-.1199-.9365-.52469-1.1829Zm26.35299 18.338H21.5139l4.9726-6.8398c.3687-.5064.2565-1.216-.2505-1.5847-.5064-.3681-1.216-.2559-1.5847.2505l-3.59 4.9378c.5459-3.5824 1.3891-8.9929 2.3279-14.9683 1.4299.949 3.0808 1.5889 4.8575 1.8276l.494 2.5785-1.2314 1.6934c-.3681.507-.2558 1.2166.2505 1.5847.507.3687 1.2166.2564 1.5847-.25l1.5203-2.091c.185-.2541.2559-.5726.1968-.881l-.4839-2.5271h5.6628c.0402.3799.0614.764.0614 1.151v15.1184h.0006Zm10.5126-31.5378c-2.7108 0-4.9159-2.2051-4.9159-4.916 0-2.7109 2.2051-4.916 4.9159-4.916 2.7109 0 4.916 2.2051 4.916 4.916 0 2.7109-2.2051 4.916-4.916 4.916Z" fill="#000"/></svg>