<svg width="62" height="77" fill="none" xmlns="http://www.w3.org/2000/svg"><path d="M52.4454 67.7985v-11.513h7.6753v14.0714c0 1.3571-.5391 2.6586-1.4987 3.6182-.9596.9596-2.2611 1.4987-3.6181 1.4987h-2.5585v-7.6753Z" fill="#F6BB92"/><path d="m56.2831 44.7726 1.0798-2.5584.9578-2.2692c.5132-1.2201.6512-2.5655.3965-3.8644-.2547-1.2989-.8906-2.4925-1.8265-3.4286-1.2491-1.2494-1.9508-2.9439-1.9508-4.7107v-6.1946H26.8611v6.1951c.0001 1.7668-.7016 3.4613-1.9508 4.7107-.9359.9359-1.5718 2.1294-1.8266 3.4282-.2548 1.2989-.117 2.6442.396 3.8643l1.0137 2.4115 31.7897 2.4161Z" fill="#834B10"/><path d="M60.1207 49.9954c0-1.8169-.6445-3.5749-1.8189-4.9612-1.1744-1.3863-2.8025-2.311-4.5946-2.6097l-1.2618-.2103-6.6064-1.1011-4.9066 4.9388-4.9582-4.9768-9.1132 1.1391v33.2597h25.5844V65.2401c1.1571-1.1576 1.8877-2.6733 2.0724-4.2996.1848-1.6263-.1872-3.2672-1.0551-4.6549h6.658v-6.2902Z" fill="#85BC94"/><path d="M55.0038 23.0259H26.861v-7.6753c0-3.7319 1.4825-7.31105 4.1214-9.94995 2.6389-2.6389 6.2181-4.12141 9.95-4.12141 3.732 0 7.3111 1.48251 9.95 4.12141 2.6389 2.6389 4.1214 6.21805 4.1214 9.94995v7.6753Z" fill="#834B10"/><path d="M51.1662 19.1883h-1.2793V11.513h-17.909v7.6753h-1.2792c-1.0178 0-1.994.4043-2.7137 1.124-.7197.7197-1.124 1.6959-1.124 2.7137 0 1.0178.4043 1.9939 1.124 2.7136.7197.7197 1.6959 1.124 2.7137 1.124h1.2792v1.2792c0 2.3749.9434 4.6525 2.6227 6.3318 1.6793 1.6793 3.9569 2.6228 6.3318 2.6228 2.3749 0 4.6525-.9435 6.3318-2.6228 1.6793-1.6793 2.6227-3.9569 2.6227-6.3318v-1.2792h1.2793c1.0178 0 1.9939-.4043 2.7136-1.124.7197-.7197 1.124-1.6958 1.124-2.7136s-.4043-1.994-1.124-2.7137c-.7197-.7197-1.6958-1.124-2.7136-1.124Z" fill="#F6BB92"/><path d="M39.6532 50.9368v24.537H11.0307c.9542-1.4854 2.065-2.8641 3.3132-4.1127l.0943-.0943c2.2873-2.2834 4.1169-4.983 5.3903-7.9535.5021-1.1705 1.0026-2.341 1.3672-3.1901.331-.7723.5484-1.2792.5484-1.2792h-3.6809c-1.1408-.001-2.2487-.3828-3.1479-1.085-.8991-.7021-1.5381-1.6844-1.8155-2.791l-.63-2.5201-.1647-.6588c-.0943-.3771-.1013-.7708-.0207-1.1511.0806-.3803.2469-.7373.4861-1.0437.2393-.3064.5452-.5543.8945-.7248.3494-.1705.733-.2592 1.1218-.2592h4.3989c.8248-2.4769 2.5089-4.5767 4.7475-5.9196l.5597-.3342c1.4387-.8628 3.0717-1.349 4.7481-1.4136 1.6764-.0645 3.342.2946 4.8428 1.0442l.056.0288c1.6567.8284 3.0499 2.1018 4.0237 3.6774.9738 1.5756 1.4896 3.3913 1.4897 5.2435Z" fill="#BD9070"/><path d="M39.6531 51.1687v3.6297c0 .8055-.2534 1.5905-.7244 2.2439-.471.6534-1.1356 1.1421-1.8997 1.3968-.7877.2625-1.6393.2625-2.427 0-.7641-.2547-1.4287-.7434-1.8997-1.3968-.471-.6534-.7244-1.4384-.7245-2.2439v-6.1882h5.1169l2.5584 2.5585ZM27.7661 57.1906l-2.5584 2.5584c-.2402.2397-.5657.3743-.9051.3742h-3.1068c.3309-.7723.5484-1.2792.5484-1.2792h-3.6809c-1.2458.0012-2.4488-.4539-3.382-1.2792h9.0921l2.1826-2.1843c.2401-.24.5656-.3749.9051-.3749.3394 0 .665.1349.905.3749.2401.24.3749.5656.3749.905 0 .3395-.1348.6651-.3749.9051ZM16.6273 48.6102v1.5461c0 .6078-.2414 1.1907-.6712 1.6204-.4297.4298-1.0126.6712-1.6204.6712h-1.8659l-.1647-.6588a2.56037 2.56037 0 0 1-.0207-1.1512c.0807-.3803.2469-.7372.4861-1.0436.2393-.3064.5452-.5543.8945-.7248.3494-.1706.7331-.2592 1.1218-.2593h1.8405ZM20.5952 72.3141c-.2375-.0002-.4702-.0665-.6722-.1915a1.278423 1.278423 0 0 1-.4712-.5161c-.1061-.2125-.151-.4503-.1297-.6868.0214-.2365.1082-.4624.2507-.6524 1.5257-2.0331 2.7131-4.2992 3.5163-6.7109.0518-.1609.1351-.3099.2449-.4384.1098-.1285.244-.234.3949-.3103.1508-.0764.3153-.1221.4839-.1345.1686-.0123.3379.0088.4983.0623.1604.0534.3086.1381.436.2492s.2316.2463.3064.3979c.0749.1516.1189.3165.1297.4852.0107.1687-.0121.3379-.0672.4977-.8899 2.6726-2.2057 5.1838-3.8965 7.4369a1.27587 1.27587 0 0 1-.4516.377c-.1778.0889-.3739.135-.5727.1347Z" fill="#9E785D"/><path d="M30.6987 19.1883c1.2026-.4008 2.3034-1.0589 3.2258-1.9285.9223-.8695 1.644-1.9297 2.1149-3.1067l1.0554-2.6401-6.3961-1.2792v8.9545Z" fill="#834B10"/><path d="m37.0947 11.513.1499.2246c1.5279 2.2919 3.598 4.1712 6.0265 5.4709 2.4286 1.2998 5.1405 1.9798 7.895 1.9798v-8.9545L37.0947 11.513ZM36.1353 23.3457c.8832 0 1.5991-.7159 1.5991-1.599s-.7159-1.5991-1.5991-1.5991c-.8831 0-1.599.716-1.599 1.5991s.7159 1.599 1.599 1.599ZM45.7295 23.3457c.8831 0 1.599-.7159 1.599-1.599s-.7159-1.5991-1.599-1.5991-1.599.716-1.599 1.5991.7159 1.599 1.599 1.599ZM40.9324 28.1427H38.374c-.2181 0-.4325-.0557-.623-.1619-.1904-.1062-.3506-.2593-.4652-.4448a1.279586 1.279586 0 0 1-.1897-.615c-.0098-.2179.0362-.4346.1338-.6296l2.5584-5.1169c.0743-.1516.1779-.2869.3048-.3983s.2746-.1965.4346-.2505c.1599-.054.329-.0758.4974-.0642.1685.0117.3329.0566.4839.1321.151.0755.2856.1801.3959.3079.1104.1278.1944.2761.2471.4365.0528.1604.0733.3296.0603.4979-.013.1684-.0591.3325-.1358.4829l-1.6328 3.2655h.4887c.3393 0 .6647.1348.9046.3747.2399.2399.3746.5652.3746.9045 0 .3393-.1347.6647-.3746.9046s-.5653.3746-.9046.3746Z" fill="#834B10"/><path d="M48.6078 52.4479c-.3393 0-.6647-.1348-.9046-.3747-.2399-.2399-.3746-.5653-.3746-.9045v-8.9545c0-.3393.1347-.6647.3746-.9046s.5653-.3747.9046-.3747c.3392 0 .6646.1348.9045.3747.2399.2399.3747.5653.3747.9046v8.9545c0 .3392-.1348.6646-.3747.9045-.2399.2399-.5653.3747-.9045.3747Z" fill="#C3C3C3"/><path d="M48.6077 58.844c2.1194 0 3.8376-1.7182 3.8376-3.8376 0-2.1195-1.7182-3.8377-3.8376-3.8377-2.1195 0-3.8377 1.7182-3.8377 3.8377 0 2.1194 1.7182 3.8376 3.8377 3.8376Z" fill="#E4E4E2"/><path d="M48.6078 56.2856c.7065 0 1.2792-.5727 1.2792-1.2792 0-.7065-.5727-1.2792-1.2792-1.2792-.7065 0-1.2792.5727-1.2792 1.2792 0 .7065.5727 1.2792 1.2792 1.2792Z" fill="#C3C3C3"/><path d="M53.7246 75.4739H34.5363c-1.0178 0-1.9939-.4044-2.7136-1.1241-.7197-.7197-1.124-1.6958-1.124-2.7136s.4043-1.9939 1.124-2.7136c.7197-.7197 1.6958-1.1241 2.7136-1.1241h1.2792c0-.6785.2696-1.3292.7494-1.809.4798-.4798 1.1305-.7494 1.8091-.7494h.2195c.6785 0 1.3292.2696 1.809.7493l1.8091 1.8091h11.513v7.6754ZM11.1733 69.5353c-.189.4187-.2855.8732-.2827 1.3325.0027.4594.1046.9127.2986 1.3291.194.4164.4756.786.8256 1.0835.35.2975.7601.516 1.2022.6405l4.924 1.3912c.9795.2768 2.0287.1532 2.917-.3437.8883-.4968 1.5429-1.3261 1.8197-2.3056.2767-.9793.153-2.0285-.3438-2.9167-.4969-.8883-1.3261-1.5427-2.3055-1.8196l-1.2312-.3478c.0914-.3233.1182-.6614.0789-.9951s-.144-.6564-.308-.9496-.3841-.5513-.6479-.7595c-.2637-.2081-.5658-.3623-.8892-.4537l-.2112-.0596a2.558042 2.558042 0 0 0-.9951-.0789c-.3337.0394-.6564.144-.9496.308-1.4502.8113-2.6019 2.0663-3.2859 3.5807l-.6159 1.3643Z" fill="#F6BB92"/><path d="M4.50974 34.348c.85163.0001 1.66838.3384 2.27061.9406l1.61789 1.6179 1.61776-1.6179c.6022-.6022 1.4189-.9405 2.2706-.9406.7162 0 1.4118.2394 1.9764.6802.5645.4408.9654 1.0576 1.1391 1.7524.1964.7856.1451 1.6127-.1468 2.368-.292.7553-.8104 1.4018-1.4842 1.851l-5.3727 3.5818-5.37271-3.5818c-.67379-.4491-1.1922-1.0957-1.48419-1.851-.29198-.7553-.34327-1.5824-.14682-2.368.17366-.6947.57455-1.3115 1.13897-1.7523.56442-.4407 1.25996-.6802 1.97609-.6803Z" fill="#DC4D41"/><path d="M30.6987 19.1882h1.2792v7.6753h-1.2792v-7.6753ZM49.8869 19.1882h1.2792v7.6753h-1.2792v-7.6753Z" fill="#EEB58E"/><path d="m35.9742 41.0751 4.9582 4.9768 4.9066-4.9388c-.2987-.0498-.57-.2039-.7657-.4349a1.279125 1.279125 0 0 1-.3032-.8269v-4.0332h-7.6753v3.9877c0 .3117-.1139.6128-.3203.8465-.2063.2338-.4909.3841-.8003.4228Z" fill="#F6BB92"/><path d="M40.9324 37.0973c-2.3749 0-4.6525-.9434-6.3318-2.6227-1.6793-1.6793-2.6228-3.9569-2.6228-6.3318v-1.2792h17.9091v1.2792c0 2.3749-.9434 4.6525-2.6227 6.3318-1.6793 1.6793-3.9569 2.6227-6.3318 2.6227Z" fill="#85BC94"/><path d="M25.5818 51.1687c.7065 0 1.2792-.5728 1.2792-1.2793 0-.7064-.5727-1.2792-1.2792-1.2792-.7065 0-1.2792.5728-1.2792 1.2792 0 .7065.5727 1.2793 1.2792 1.2793Z" fill="#9E785D"/><path d="M36.1353 23.3457c.8832 0 1.5991-.7159 1.5991-1.599s-.7159-1.5991-1.5991-1.5991c-.8831 0-1.599.716-1.599 1.5991s.7159 1.599 1.599 1.599ZM45.7295 23.3457c.8831 0 1.599-.7159 1.599-1.599s-.7159-1.5991-1.599-1.5991-1.599.716-1.599 1.5991.7159 1.599 1.599 1.599ZM48.6078 56.2856c.7065 0 1.2792-.5727 1.2792-1.2792 0-.7065-.5727-1.2792-1.2792-1.2792-.7065 0-1.2792.5727-1.2792 1.2792 0 .7065.5727 1.2792 1.2792 1.2792Z" fill="#000"/><path d="m58.319 43.2376 1.1807-2.7964c.6155-1.454.782-3.0588.4781-4.6082-.3039-1.5493-1.0644-2.9724-2.1836-4.086-.5001-.4996-.8967-1.0929-1.1673-1.7459-.2705-.653-.4096-1.3529-.4094-2.0598l.0656-12.5907c0-4.0712-1.6173-7.97571-4.4961-10.85451C48.9082 1.61729 45.0037 0 40.9325 0c-4.0713 0-7.9757 1.61729-10.8545 4.49609s-4.4961 6.78331-4.4961 10.85451v12.5907c-.0042 1.4265-.5705 2.7939-1.5762 3.8057-1.1162 1.1154-1.8747 2.5382-2.1785 4.0867-.3038 1.5484-.1393 3.1523.4727 4.6068l.5875 1.3973c-2.0438 1.3312-3.6413 3.2447-4.5864 5.4933h-3.5141c-.5832-.0019-1.1591.1301-1.6833.3858s-.9827.6282-1.3403 1.0889c-.0912.1165-.1756.238-.2528.3641-.3804.6189-.5756 1.3337-.5624 2.06.0055.2935.0442.5855.1154.8702l.1647.6588.6299 2.5191c.3442 1.3847 1.1422 2.6141 2.2667 3.4923 1.1245.8781 2.5107 1.3544 3.9375 1.3528h1.7409l-1.1513 2.6873c-.0984.2301-.2026.4595-.3093.6884-.2428-.13-.4988-.2337-.7637-.3093l-.2115-.0598a3.812852 3.812852 0 0 0-1.4929-.1203c-.5007.0591-.9847.2168-1.4241.4641-1.6864.9482-3.027 2.4091-3.8271 4.1707l-.6161 1.3645c-.34753.7693-.47012 1.6213-.35353 2.4574.11659.8362.46763 1.6221 1.01233 2.267-.2463.3453-.4836.6949-.71169 1.0487-.12433.1933-.1943.4165-.20255.6461-.00824.2297.04553.4573.15567.659.11017.2017.27257.37.47027.4873.1977.1172.4233.179.6531.1789h43.9731c1.6957-.0019 3.3215-.6764 4.5206-1.8755s1.8736-2.8249 1.8755-4.5206V49.995c.0001-1.2813-.2748-2.5476-.8064-3.7134-.5315-1.1659-1.3072-2.2039-2.2746-3.044Zm.5225 6.7574v5.0114h-4.7093c-.1386-.1838-.2823-.3638-.4358-.5364-.1109-1.0363-.5348-2.0142-1.2153-2.8036-.6806-.7893-1.5854-1.3527-2.5941-1.6149v-6.967l2.348.3915h.0013l1.2607.2109c1.4937.2479 2.8509 1.0182 3.8297 2.1734.9788 1.1553 1.5156 2.6206 1.5148 4.1347Zm-7.3847 14.4334c-.0056.0069-.0106.0144-.016.0215-.0203.0259-.0403.0518-.0587.0799-.0045.0069-.0082.0141-.0126.021-.0183.0283-.0359.0569-.0519.0866-.0027.005-.0048.0104-.0075.016-.016.032-.032.064-.0462.0977-.0014.0034-.0024.007-.0038.0104-.0142.035-.0272.0707-.0384.1071-.0011.0039-.0018.0079-.0029.0116-.0105.0359-.0201.0722-.0275.1095-.0021.0101-.0029.0206-.0048.0307-.0052.0309-.0107.0617-.0139.0932-.0041.0422-.0064.0849-.0064.1279v1.2793h-8.4246l-1.4338-1.4339c-.118-.1168-.2433-.2259-.3753-.3265V50.9368c.0002-1.2912-.2215-2.5728-.6556-3.7888.2707.1632.5925.22.9028.1593.3103-.0608.5869-.2347.7762-.4879l3.384-4.512c.0945.0278.1906.0501.2878.0668l1.7009.2835v7.3938c-.8019.2066-1.5417.6048-2.1558 1.1603-.6141.5555-1.0843 1.2518-1.37 2.029-.2858.7772-.3786 1.6122-.2706 2.4332.1081.821.4137 1.6036.8908 2.2804.4771.6769 1.1113 1.2278 1.8483 1.6056.7369.3777 1.5545.571 2.3825.5631.8281-.0078 1.6419-.2165 2.3715-.6082.7296-.3916 1.3533-.9545 1.8175-1.6402.4433 1.0853.5563 2.2773.3247 3.4265-.2315 1.1493-.7972 2.2046-1.6261 3.0335-.0298.0301-.0579.0613-.0846.0937ZM30.6962 20.4675h.0025v5.1169c-.3359.0001-.6687-.0659-.9791-.1943a2.557235 2.557235 0 0 1-.8303-.5542c-.4801-.4796-.7499-1.1302-.7503-1.8087-.0003-.6785.2689-1.3294.7485-1.8095.4795-.48 1.1301-.7499 1.8087-.7502Zm23.0285 2.5584c-.0008.6783-.2707 1.3286-.7503 1.8082-.4796.4796-1.1299.7494-1.8082.7503v-5.1169c.6783.0008 1.3286.2706 1.8082.7502.4796.4796.7495 1.1299.7503 1.8082Zm-5.1169 2.5585h-8.164l1.6328-3.2656c.0767-.1504.1228-.3145.1358-.4828.0129-.1683-.0075-.3376-.0603-.4979-.0528-.1604-.1367-.3088-.2471-.4365-.1104-.1278-.2449-.2324-.3959-.308-.151-.0755-.3155-.1203-.4839-.132-.1684-.0116-.3375.0102-.4974.0642-.16.054-.3077.1391-.4346.2505-.1269.1113-.2305.2467-.3048.3983l-2.2049 4.4098h-4.3263v-6.2017c1.7934-1.1247 3.1835-2.7896 3.97-4.755l.2055-.5138c2.8371 3.364 6.8168 5.5614 11.1751 6.1703v5.3002Zm-10.2403 2.5584h10.2403c0 2.0356-.8087 3.9878-2.2481 5.4272s-3.3916 2.2481-5.4272 2.2481-3.9879-.8087-5.4273-2.2481-2.248-3.3916-2.248-5.4272h5.1103Zm2.565 10.2337c.863.0005 1.7227-.1083 2.5584-.3238v1.7981c.0007.1919.0227.3831.0657.5701l-2.6241 3.499-2.6331-3.5109c.0488-.1973.0739-.3997.0746-.6029v-1.7534c.8358.2155 1.6954.3243 2.5585.3238Zm-2.5585 16.422c0 .6785-.2695 1.3293-.7493 1.8091-.4798.4798-1.1306.7493-1.8091.7493-.6785 0-1.3293-.2695-1.8091-.7493-.4798-.4798-.7493-1.1306-.7493-1.8091v-4.909h3.3079l1.8089 1.809v3.1Zm12.7922.2079c0 .506-.15 1.0006-.4312 1.4213-.2811.4208-.6807.7487-1.1481.9423-.4675.1937-.982.2443-1.4782.1456-.4963-.0987-.9522-.3424-1.31-.7002-.3578-.3578-.6015-.8136-.7002-1.3099-.0987-.4963-.048-1.0107.1456-1.4782s.5216-.8671.9423-1.1482c.4207-.2811.9154-.4312 1.4214-.4312.6783.0008 1.3286.2706 1.8082.7502.4797.4796.7495 1.13.7502 1.8083Zm5.9756-15.5585-1.0084 2.3881c-.7061-.3194-1.4508-.5455-2.2153-.6724l-1.2613-.2109h-.0009l-6.6065-1.1019v-2.851c1.5546-.898 2.8457-2.1891 3.7438-3.7437.8982-1.5545 1.3716-3.318 1.373-5.1133.8731.0007 1.7316-.2234 2.4929-.6507v.4492c-.0002 1.043.2052 2.0758.6045 3.0393.3993.9635.9847 1.8389 1.7226 2.576.7582.7547 1.2734 1.719 1.4793 2.7688.2059 1.0498.0932 2.1372-.3237 3.1225ZM40.9325 2.55844c3.3925.00072 6.6458 1.34869 9.0446 3.74753 2.3989 2.39884 3.7468 5.65213 3.7476 9.04463v3.2468c-.777-.4515-1.6598-.6891-2.5585-.6884-.3997 0-.7965-.0159-1.1817-.0458-2.3387-.1716-4.607-.8769-6.6308-2.0616-2.0237-1.1847-3.7491-2.8173-5.0436-4.7727l-.1503-.2254c-.1293-.194-.3092-.349-.5201-.4482-.211-.0991-.445-.1388-.6769-.1147-.2318.0242-.4527.1112-.6387.2518-.186.1405-.33.3292-.4165.5456l-1.0554 2.64c-.39.9771-.9831 1.8601-1.7401 2.5906-.7569.7305-1.6605 1.2919-2.6508 1.6468-.8173.0371-1.6135.2711-2.321.682v-3.2468c.0039-3.3915 1.3528-6.64301 3.751-9.04117 2.3982-2.39816 5.6497-3.74714 9.0412-3.75099ZM25.8148 33.5566c.7397-.7357 1.3261-1.6109 1.7252-2.5747.3992-.9639.6032-1.9973.6003-3.0406v-.4861c.7771.4513 1.6598.6885 2.5584.6876.0014 1.7953.4749 3.5588 1.3731 5.1133.8981 1.5546 2.1892 2.8456 3.7438 3.7437v2.8064l-2.8613.3574c-.2421-.0752-.4891-.146-.7434-.2063-2.3641-.5588-4.8455-.337-7.0731.6321l-.4797-1.1399c-.415-.9859-.5266-2.0732-.3206-3.1229.2059-1.0496.7202-2.0141 1.477-2.77h.0003ZM14.7869 49.8895h.5612v.2669c-.0003.2684-.107.5257-.2968.7155-.1898.1898-.4471.2965-.7155.2968h-.8265c0-.0078 0-.016.0009-.0233.001-.0536.0053-.107.013-.1599.0022-.016.0043-.032.0072-.048.0107-.061.026-.1211.0455-.1799.0021-.0062.0051-.0122.0072-.0184.0194-.0533.0423-.1053.0685-.1556.0075-.0147.0154-.0292.0235-.0436.031-.0559.0661-.1093.105-.1599.1192-.1533.2719-.2772.4464-.3622.1745-.0851.3662-.129.5604-.1284Zm9.5158 10.2337c.1679 0 .3343-.033.4895-.0973s.2962-.1585.415-.2773l2.5585-2.5585c.1187-.1187.213-.2598.2773-.415.0642-.1552.0973-.3215.0973-.4895 0-.168-.0331-.3344-.0973-.4896-.0643-.1552-.1586-.2962-.2773-.415-.1188-.1188-.2599-.213-.4151-.2773a1.27877 1.27877 0 0 0-.4895-.0974 1.279344 1.279344 0 0 0-.9046.3747l-2.1836 2.1838h-5.7096c-.8561.001-1.6879-.2848-2.3626-.8117-.6747-.527-1.1535-1.2647-1.36-2.0955l-.2325-.9305h.2276c.9467-.0011 1.8543-.3776 2.5237-1.047.6694-.6694 1.046-1.577 1.0471-2.5237v-.2669h1.2792c.2684 0 .5301-.0845.7479-.2415.2178-.157.3807-.3785.4656-.6332.7279-2.1862 2.2139-4.0398 4.1894-5.2257l.5626-.3358c1.9426-1.1659 4.2638-1.527 6.4688-1.0065.2779.0659.5466.1434.8062.2325.3673.1245.7258.2735 1.0731.446l.068.0349c.5804.2899 1.1262.6447 1.6268 1.0574.0133.011.0269.0219.0406.032 1.0446.8661 1.8712 1.9654 2.4133 3.2094a1.27783 1.27783 0 0 0-.5533-.1279H31.978c-.3393 0-.6647.1347-.9046.3746s-.3747.5653-.3747.9046v6.1882c-.0025.8991.2323 1.783.6809 2.5623.4486.7792 1.095 1.4262 1.8739 1.8755.7788.4493 1.6625.6849 2.5616.6832.8991-.0018 1.7819-.241 2.5589-.6933v4.7347c-.7939-.0003-1.5684.2456-2.2168.7038-.6484.4582-1.1388 1.1061-1.4037 1.8546h-.2171c-.8984-.0007-1.7811.2354-2.5593.6844-.7782.4491-1.4243 1.0952-1.8732 1.8734-.449.7781-.6851 1.6609-.6843 2.5593.0007.8984.2381 1.7808.6883 2.5582h-6.4997c.4693-.8082.7084-1.7295.6915-2.664-.0169-.9344-.2892-1.8465-.7874-2.6372.8088-1.4429 1.4799-2.9588 2.0043-4.5276.1074-.3219.0825-.6732-.0691-.9767-.1517-.3035-.4177-.5343-.7395-.6417-.3218-.1074-.6732-.0825-.9767.0691-.3035.1517-.5343.4177-.6417.7395-.4074 1.2192-.9132 2.4032-1.5122 3.5406-.3184-.1687-.6538-.3033-1.0005-.4014l-.2091-.0592a3.800085 3.800085 0 0 0-.2109-1.027c.3063-.5892.5906-1.1898.8474-1.792l1.5831-3.6938h1.7153Zm-11.9633 9.9384.6161-1.3644c.5738-1.263 1.535-2.3104 2.7443-2.9902.1464-.0823.3077-.1348.4746-.1545.1669-.0197.336-.0061.4976.0399l.2113.0598c.3263.0925.6026.3108.7682.6068.1655.296.2069.6456.115.972-.0923.3265-.0511.6762.1145.9723.1656.2961.442.5143.7685.6066l1.2312.348c.6492.1877 1.1977.6247 1.5258 1.2155.3281.5908.4091 1.2874.2254 1.9377-.1837.6504-.6173 1.2016-1.206 1.5334-.5888.3317-1.2849.4171-1.9363.2374l-4.925-1.3912c-.265-.0746-.5107-.2055-.7203-.3838-.2097-.1783-.3785-.3997-.4947-.6492-.1163-.2495-.1773-.5211-.1789-.7964-.0016-.2752.0562-.5475.1695-.7984l-.0008-.0013Zm46.5021.2954c-.0012 1.0174-.4059 1.9928-1.1253 2.7123-.7195.7194-1.6949 1.1241-2.7123 1.1253H34.5364c-.6785 0-1.3293-.2695-1.8091-.7493-.4798-.4798-.7493-1.1306-.7493-1.8091 0-.6786.2695-1.3293.7493-1.8091.4798-.4798 1.1306-.7493 1.8091-.7493h1.2792c.3393 0 .6647-.1348.9046-.3747.2399-.2399.3746-.5653.3746-.9046-.0004-.1681.0324-.3346.0966-.49.0641-.1554.1583-.2965.2772-.4154s.2601-.2131.4154-.2772c.1554-.0642.3219-.097.49-.0966h.2191c.3392.0026.664.1372.9055.3753l1.8085 1.8085c.1188.1188.2598.213.4151.2773.1552.0643.3215.0974.4895.0974h10.2337c.3393 0 .6647-.1348.9046-.3747.2399-.2399.3747-.5653.3747-.9046v-2.0528c.9664-1.1004 1.633-2.4312 1.9355-3.8642.3024-1.4329.2306-2.9196-.2086-4.3167h3.3899V70.357Z" fill="#000"/><path d="M16.6433 36.4703c-.1928-.7708-.5867-1.4767-1.1414-2.0456-.5548-.5688-1.2506-.9803-2.0163-1.1925-.7657-.2121-1.5741-.2172-2.3424-.0149-.7684.2024-1.46937.605-2.03131 1.1668l-.71317.7131-.71332-.7131c-.56191-.5618-1.26284-.9645-2.03122-1.1669-.76839-.2024-1.57672-.1973-2.34249.0148a4.490351 4.490351 0 0 0-2.01628 1.1925 4.49055 4.49055 0 0 0-1.141407 2.0457c-.258861 1.0415-.190145 2.1376.196773 3.1386.386917 1.0011 1.073204 1.8585 1.965264 2.4552l5.37272 3.5818c.21013.1401.45702.2149.70956.2149.25255 0 .49944-.0748.70957-.2149l5.37271-3.5818c.8922-.5966 1.5786-1.4539 1.9656-2.455.3871-1.001.4559-2.0971.1971-3.1387Zm-3.5818 3.4649-4.66358 3.109-4.66307-3.109c-.45368-.3034-.80272-.7394-.99951-1.2485-.1968-.509-.23176-1.0664-.10013-1.5961.08299-.3317.2525-.6354.49123-.8802.23873-.2448.53813-.4218.86765-.5131.32951-.0912.67733-.0934 1.00797-.0063.33064.087.63225.2603.87404.502l1.61774 1.6179c.11878.1188.25981.2131.41501.2774.15521.0642.32156.0973.48955.0973.168 0 .33435-.0331.48955-.0973.15521-.0643.29623-.1586.41502-.2774l1.61773-1.6179c.2418-.2417.5434-.415.8741-.5022.3306-.0871.6785-.0849 1.008.0064.3296.0913.629.2684.8677.5132.2387.2448.4082.5486.4911.8803.1315.5298.0965 1.0871-.1004 1.5962-.1969.509-.546.945-.9997 1.2483ZM25.5818 51.1687c.7065 0 1.2792-.5728 1.2792-1.2793 0-.7064-.5727-1.2792-1.2792-1.2792-.7065 0-1.2792.5728-1.2792 1.2792 0 .7065.5727 1.2793 1.2792 1.2793Z" fill="#000"/></svg>