<svg width="72" height="78" fill="none" xmlns="http://www.w3.org/2000/svg"><path d="M30.8571 25.7142V22.378c.0001-.5655.1244-1.124.3642-1.636.2399-.5121.5894-.9651 1.0238-1.3271l5.5387-4.6157c.5089-.4241 1.1504-.6564 1.8128-.6564.3719 0 .7402.0732 1.0838.2155.3435.1423.6557.3509.9187.6139.263.2629.4716.5751.6139.9187.1423.3436.2156.7118.2156 1.0837v5.0574c0 .7598-.1497 1.5121-.4404 2.2141-.2908.7019-.717 1.3397-1.2542 1.877l-2.1626 2.1626v5.5285c.0001.6567-.1828 1.3003-.528 1.8589-.3452.5586-.8391 1.01-1.4264 1.3037l-3.1884 1.5946h-2.5715V25.7142ZM12.8572 25.7142V22.378c-.0001-.5655-.1244-1.124-.3642-1.636a3.857696 3.857696 0 0 0-1.0238-1.3271l-5.53882-4.6157c-.50887-.4241-1.1503-.6563-1.8127-.6564-.37189 0-.74014.0732-1.08373.2155a2.831396 2.831396 0 0 0-.91875.6139c-.26297.2629-.47157.5751-.61389.9187a2.83176 2.83176 0 0 0-.21557 1.0837v5.0574c-.00001.7598.14964 1.5121.44039 2.2141.29076.7019.71693 1.3397 1.25418 1.877l2.16257 2.1626v5.5285c-.00003.6567.18281 1.3003.52801 1.8589.3452.5586.83913 1.01 1.42643 1.3037l3.18838 1.5946h2.5715V25.7142Z" fill="#E08122"/><path d="M32.1419 31.2858a1.285997 1.285997 0 0 1-.6756-.1924c-.203-.1256-.367-.3053-.4736-.5188-.1067-.2135-.1518-.4525-.1303-.6903.0214-.2377.1087-.4647.2519-.6557L36 22.7142v-2.1428c0-.341.1355-.668.3766-.9091.2411-.2411.5681-.3766.9091-.3766.341 0 .668.1355.9092.3766.2411.2411.3765.5681.3765.9091v2.5714c0 .2782-.0902.5489-.2571.7715l-5.1429 6.857c-.1197.16-.2751.2898-.4538.3791-.1788.0893-.3759.1357-.5757.1354ZM11.5724 31.2858c-.1998.0003-.3969-.0461-.5756-.1354a1.28274 1.28274 0 0 1-.4539-.3789l-5.14287-6.8572c-.16692-.2226-.25715-.4933-.25715-.7715v-2.5714c0-.341.13546-.668.37658-.9091.24112-.2411.56814-.3766.90914-.3766.34099 0 .66802.1355.90913.3766.24112.2411.37658.5681.37658.9091v2.1428L12.6 29.2286c.1432.191.2305.418.2519.6557.0215.2378-.0236.4768-.1303.6903-.1066.2135-.2706.3932-.4736.5188-.203.1256-.4369.1922-.6756.1924Z" fill="#BF6E1D"/><path d="m33.3771 69.7886-1.2342.9257.6814.2266 1.4175.4725c.5118.171.957.4985 1.2725.9363s.4854.9637.4857 1.5034v2.0041H7.7143v-2.2677a2.5715 2.5715 0 0 1 .38376-1.3517c.25093-.4062.60998-.7345 1.03696-.9481l1.15068-.5754-2.35122-2.3512c-.96403-.9643-1.50569-2.2719-1.50589-3.6354v-4.5193c.00001-.3379.06659-.6724.19592-.9846.12933-.3121.31888-.5958.55783-.8347l3.10336-3.1034 2.5715-6.4285h17.9999l2.5715 6.4285 3.1034 3.1034c.2389.2389.4285.5226.5578.8347.1293.3122.1959.6467.1959.9846v4.0773c.0001.7985-.1857 1.5859-.5428 2.3001-.3571.7141-.8755 1.3353-1.5143 1.8142l-1.8515 1.3886ZM30.8572 48.8571h-18l-2.5715-6.4285V30.2828c.0001-1.2788.508-2.5051 1.4122-3.4093l.0229-.0228c.7376-.7376 1.6946-1.2161 2.7273-1.3637l.1359-.0194a51.43503 51.43503 0 0 1 14.5463 0l.1359.0194c1.0327.1476 1.9897.6261 2.7274 1.3637l.0228.0228c.9042.9042 1.4122 2.1305 1.4122 3.4093v12.1458l-2.5714 6.4285Z" fill="#FD9226"/><path d="M26.6698 52.7143c-.6894 0-1.368-.1701-1.9758-.4953-.6078-.3252-1.1259-.7955-1.5084-1.369l-1.3284-1.9928-1.3283 1.9928c-.3825.5735-.9006 1.0438-1.5084 1.369-.6077.3252-1.2864.4953-1.9758.4953-.5499 0-1.0944-.1083-1.6025-.3187-.508-.2104-.9696-.5189-1.3585-.9077-.3889-.3888-.6973-.8505-.9078-1.3585-.2104-.5081-.3187-1.0526-.3187-1.6025V46.616c0-1.1106.4411-2.1757 1.2264-2.9609.7853-.7853 1.8504-1.2265 2.961-1.2265h9.6252c1.1105 0 2.1756.4412 2.9609 1.2265.7853.7852 1.2265 1.8503 1.2265 2.9609v1.9109c0 1.1106-.4412 2.1756-1.2265 2.9609-.7853.7853-1.8504 1.2265-2.9609 1.2265Z" fill="#985713"/><path d="M14.1429 71.9999v3.8572h-2.5715v-3.5534l-1.1507-2.2998a1.29949 1.29949 0 0 1-.135-.5754v-6.4286c0-.3409.1355-.668.3766-.9091.2411-.2411.5682-.3766.9091-.3766.341 0 .6681.1355.9092.3766.2411.2411.3766.5682.3766.9091v6.1249l1.1507 2.2998c.0886.1789.1348.3757.135.5753ZM20.5714 62.9999v6.4286a1.29949 1.29949 0 0 1-.135.5754l-1.1507 2.2998v3.5534h-2.5714v-3.8572c.0002-.1996.0463-.3964.135-.5753L18 69.1248v-6.1249c0-.3409.1354-.668.3766-.9091.2411-.2411.5681-.3766.9091-.3766.341 0 .668.1355.9091.3766.2411.2411.3766.5682.3766.9091ZM33.4286 62.9999v6.4286c-.0005.1996-.0467.3964-.135.5754l-.4693.9369-.6815 1.3629v3.5534h-2.5714v-3.8572c.0002-.1996.0464-.3964.135-.5753l1.1507-2.2998v-6.1249c0-.3409.1355-.668.3766-.9091.2411-.2411.5681-.3766.9091-.3766.341 0 .6681.1355.9092.3766.2411.2411.3766.5682.3766.9091ZM27 71.9999v3.8572h-2.5714v-3.5534l-1.1507-2.2998c-.0887-.1789-.1349-.3758-.135-.5754v-6.4286c0-.3409.1354-.668.3765-.9091.2411-.2411.5682-.3766.9092-.3766.341 0 .668.1355.9091.3766.2411.2411.3766.5682.3766.9091v6.1249l1.1507 2.2998c.0886.1789.1348.3757.135.5753Z" fill="#E08122"/><path d="M21.8572 47.5714c1.4201 0 2.5714-1.1512 2.5714-2.5714 0-1.4201-1.1513-2.5714-2.5714-2.5714-1.4202 0-2.5715 1.1513-2.5715 2.5714 0 1.4202 1.1513 2.5714 2.5715 2.5714Z" fill="#70400E"/><path d="M16.7143 37.7679c.9764 0 1.7679-.7915 1.7679-1.7679 0-.9763-.7915-1.7678-1.7679-1.7678s-1.7679.7915-1.7679 1.7678c0 .9764.7915 1.7679 1.7679 1.7679ZM27.4822 37.7679c.9763 0 1.7678-.7915 1.7678-1.7679 0-.9763-.7915-1.7678-1.7678-1.7678-.9764 0-1.7679.7915-1.7679 1.7678 0 .9764.7915 1.7679 1.7679 1.7679Z" fill="#985713"/><path d="M52.7143 47.5714v24.4285c0 1.364-.5419 2.6721-1.5063 3.6366-.9645.9644-2.2726 1.5063-3.6366 1.5063-1.3639 0-2.672-.5419-3.6365-1.5063-.9645-.9645-1.5063-2.2726-1.5063-3.6366v-5.4643c0-.2557-.1016-.501-.2825-.6818-.1808-.1809-.4261-.2824-.6818-.2824h-9.3214c-.341 0-.6681-.1355-.9092-.3766-.2411-.2411-.3766-.5682-.3766-.9092 0-.341.1355-.668.3766-.9091.2411-.2411.5682-.3766.9092-.3766h9.3214c.9374.0011 1.8361.374 2.4989 1.0368.6628.6629 1.0357 1.5615 1.0368 2.4989v5.4643c0 .682.2709 1.3361.7531 1.8183.4823.4822 1.1363.7531 1.8183.7531.682 0 1.3361-.2709 1.8183-.7531.4822-.4822.7532-1.1363.7532-1.8183V47.5714c0-.341.1354-.6681.3765-.9092.2411-.2411.5682-.3766.9092-.3766.341 0 .668.1355.9091.3766.2411.2411.3766.5682.3766.9092Z" fill="#DBDBDB"/><path d="M51.4286 25.7142c-.7235-.0004-1.4387-.1533-2.0991-.4486-.6604-.2953-1.2513-.7264-1.734-1.2652-.1126-.1258-.1993-.2726-.2552-.4319-.0559-.1593-.0798-.3281-.0705-.4967.0188-.3405.1722-.6595.4263-.8869.254-.2274.5881-.3446.9285-.3258.1686.0094.3337.0518.4859.125.1522.0731.2885.1755.4011.3013.2859.3198.6472.5629 1.0511.7073.4039.1444.8376.1855 1.2614.1195.4238-.066.8244-.237 1.1653-.4974.3408-.2603.6112-.6018.7863-.9934.1752-.3916.2496-.8207.2165-1.2484a2.571876 2.571876 0 0 0-.4059-1.2002c-.2333-.3599-.553-.6558-.9298-.8606-.3769-.2049-.799-.3122-1.2279-.3122-.341 0-.6681-.1355-.9092-.3766-.2411-.2411-.3766-.5682-.3766-.9091V5.14283c0-.34099.1355-.66802.3766-.90914.2411-.24111.5682-.37657.9092-.37657.341 0 .668.13546.9091.37657.2411.24112.3766.56815.3766.90914V15.5912c1.2126.3124 2.2695 1.0565 2.9726 2.0927.703 1.0362 1.0039 2.2933.8461 3.5355-.1578 1.2422-.7633 2.3842-1.7031 3.2117-.9397.8275-2.1491 1.2838-3.4013 1.2831Z" fill="#878787"/><path d="M66.8571 6.42856H50.1429c-.682 0-1.3361-.27092-1.8183-.75315-.4822-.48224-.7532-1.13629-.7532-1.81828 0-.68198.271-1.33603.7532-1.81827.4822-.48224 1.1363-.75315 1.8183-.75315h16.7142v5.14285Z" fill="#CBCBCB"/><path d="M61.7143 6.42859h5.1428V70.7143h-5.1428V6.42859Z" fill="#985713"/><path d="M70.7143 75.8572H57.8571c.0001-1.1865.293-2.3547.8528-3.4008.5599-1.0461 1.3693-1.9378 2.3565-2.596l.6479-.4318h5.1428l.6479.4318c.9872.6582 1.7966 1.5499 2.3565 2.596.5598 1.0461.8528 2.2143.8528 3.4008Z" fill="#70400E"/><path d="M45 51.4286h2.5714V54H45v-2.5714ZM45 56.5714h2.5714v5.1429H45v-5.1429Z" fill="#C0F5F9"/><path d="M23.1429 61.7142h10.2857v5.1429H23.1429v-5.1429Z" fill="#6B9777"/><path d="M51.4286 30.8571c-.341 0-.6681-.1355-.9092-.3766-.2411-.2411-.3765-.5681-.3765-.9091v-5.1429c0-.341.1354-.668.3765-.9091.2411-.2411.5682-.3766.9092-.3766.341 0 .668.1355.9091.3766.2411.2411.3766.5681.3766.9091v5.1429c0 .341-.1355.668-.3766.9091-.2411.2411-.5681.3766-.9091.3766Z" fill="#CBCBCB"/><path d="M52.7143 47.5714v1.1233c-.8435.2165-1.728.2165-2.5714 0v-1.1233c0-.341.1354-.6681.3765-.9092.2411-.2411.5682-.3766.9092-.3766.341 0 .668.1355.9091.3766.2411.2411.3766.5682.3766.9092Z" fill="#C3C3C3"/><path d="M61.7143 6.42859h5.1428v2.57143h-5.1428V6.42859Z" fill="#70400E"/><path d="M33.4286 63h1.2857v2.5714h-1.2857V63Z" fill="#C3C3C3"/><path d="M46.2857 29.5714h10.2857v12.8571c0 1.364-.5418 2.6721-1.5063 3.6366-.9645.9645-2.2726 1.5063-3.6365 1.5063-1.364 0-2.6721-.5418-3.6366-1.5063-.9645-.9645-1.5063-2.2726-1.5063-3.6366V29.5714Z" fill="#EBEBEB"/><path d="M51.4286 47.5714c-1.364 0-2.6721-.5419-3.6366-1.5063-.9645-.9645-1.5063-2.2726-1.5063-3.6366v-7.7143h10.2857v7.7143c0 1.364-.5418 2.6721-1.5063 3.6366-.9645.9644-2.2726 1.5063-3.6365 1.5063Z" fill="#C0F5F9"/><path d="M54 39.8571h-1.2857v-1.2857h-2.5714v1.2857h-1.2858v2.5715h1.2858v1.2857h2.5714v-1.2857H54v-2.5715Z" fill="#85BC94"/><path d="M46.2857 34.7142h10.2857v1.2857H46.2857v-1.2857Z" fill="#B8EAEE"/><path d="M16.7143 37.7679c.9764 0 1.7679-.7915 1.7679-1.7679 0-.9763-.7915-1.7678-1.7679-1.7678s-1.7679.7915-1.7679 1.7678c0 .9764.7915 1.7679 1.7679 1.7679ZM27.4822 37.7679c.9763 0 1.7678-.7915 1.7678-1.7679 0-.9763-.7915-1.7678-1.7678-1.7678-.9764 0-1.7679.7915-1.7679 1.7678 0 .9764.7915 1.7679 1.7679 1.7679Z" fill="#000"/><path d="M3.85717 28.8181v4.9962c-.00286.896.24528 1.7749.71632 2.5372.47103.7622 1.14613 1.3773 1.9488 1.7755l2.47773 1.239v3.0626c0 .1635.0312.3256.09193.4774l2.38055 5.9511-2.28219 5.7054-2.91712 2.9174c-.35944.3575-.64442.7827-.83843 1.251a3.834057 3.834057 0 0 0-.29188 1.4775v4.5192a6.385396 6.385396 0 0 0 .48603 2.4609c.32312.78.79775 1.4883 1.39642 2.0837l1.11246 1.1124c-.5277.3512-.96006.8278-1.25834 1.3871-.29829.5593-.4532 1.1839-.45085 1.8177v2.2677c0 .341.13546.668.37657.9091.24112.2412.56815.3766.90914.3766H36c.341 0 .668-.1354.9091-.3766.2412-.2411.3766-.5681.3766-.9091V73.853c.0006-.7692-.2291-1.5211-.6594-2.1586-.4304-.6376-1.0418-1.1318-1.7555-1.4189L36 69.4285c1.2549-.9462 2.1215-2.3176 2.4376-3.8571h3.0267c.2557.0003.5008.1019.6816.2827.1807.1808.2824.4259.2827.6816V72c0 1.3639.5418 2.672 1.5063 3.6365.9645.9645 2.2726 1.5063 3.6365 1.5063 1.364 0 2.6721-.5418 3.6366-1.5063.9645-.9645 1.5063-2.2726 1.5063-3.6365V48.7285c1.4511-.2982 2.755-1.0877 3.6918-2.2353.9368-1.1477 1.4493-2.5832 1.451-4.0646V29.5714c0-.341-.1354-.668-.3765-.9091-.2411-.2411-.5682-.3766-.9092-.3766h-3.8571v-2.7342c1.1045-.2847 2.083-.9284 2.7816-1.8299.6987-.9015 1.0778-2.0097 1.0778-3.1503 0-1.1405-.3791-2.2487-1.0778-3.1502-.6986-.9016-1.6771-1.5453-2.7816-1.8299V7.71428h7.7143V68.7405l-.0752.0502c-1.1645.7744-2.1191 1.825-2.779 3.0579-.6599 1.233-1.0045 2.6101-1.003 4.0085 0 .341.1355.668.3766.9091.2411.2412.5682.3766.9091.3766h12.8572c.341 0 .668-.1354.9091-.3766.2411-.2411.3766-.5681.3766-.9091.0015-1.3985-.3431-2.7755-1.003-4.0085-.6598-1.233-1.6145-2.2836-2.7789-3.0581l-.0752-.0501V1.28571c0-.340989-.1355-.668015-.3766-.909133C67.5252.135459 67.1981 0 66.8571 0H50.1429c-1.023 0-2.0041.406376-2.7274 1.12973-.7234.72335-1.1298 1.70443-1.1298 2.72741s.4064 2.00406 1.1298 2.72741c.7233.72336 1.7044 1.12973 2.7274 1.12973v9.00002c0 .341.1354.668.3765.9091.2412.2411.5682.3766.9092.3766.4289 0 .851.1073 1.2279.3122.3769.2048.6965.5007.9298.8607.2333.3599.3728.7725.4059 1.2002.0331.4276-.0413.8568-.2165 1.2483-.1751.3916-.4454.7331-.7863.9935-.3409.2604-.7415.4313-1.1653.4973-.4238.066-.8574.025-1.2613-.1195-.4039-.1444-.7653-.3875-1.0512-.7073a1.284927 1.284927 0 0 0-.4011-.3013c-.1522-.0731-.3173-.1156-.4859-.1249-.1685-.0094-.3373.0146-.4966.0705-.1594.0559-.3061.1426-.4319.2552-.1258.1126-.2282.2489-.3014.4011-.0731.1522-.1156.3173-.1249.4858-.0093.1686.0146.3374.0705.4967.0559.1594.1426.3061.2552.4319.6779.7561 1.5641 1.295 2.5474 1.549v2.7363h-3.8572c-.341 0-.668.1355-.9091.3766-.2411.2411-.3766.5681-.3766.9091v12.8572c.0017 1.4814.5142 2.9169 1.451 4.0646.9369 1.1476 2.2408 1.9371 3.6919 2.2353V72c0 .682-.271 1.336-.7532 1.8182-.4822.4823-1.1363.7532-1.8183.7532-.6819 0-1.336-.2709-1.8182-.7532C45.2709 73.336 45 72.682 45 72v-5.4643c-.0011-.9374-.3739-1.8361-1.0368-2.499-.6628-.6628-1.5615-1.0357-2.4989-1.0367h-2.8929v-2.7916c.0014-.507-.0978-1.0091-.2918-1.4775-.194-.4683-.479-.8935-.8385-1.251l-2.9168-2.9174-2.2821-5.7054 2.3805-5.9511c.0606-.1519.0917-.3139.0916-.4774V39.366l2.4784-1.2393c.8025-.3983 1.4775-1.0133 1.9484-1.7755.4709-.7622.719-1.641.7161-2.5369v-4.9962l1.7866-1.786c.6586-.655 1.1807-1.4342 1.5361-2.2925.3555-.8582.5371-1.7784.5344-2.7073v-5.0577c.0001-.5407-.1064-1.0762-.3133-1.5757-.2069-.4996-.5102-.9536-.8926-1.3359a4.115377 4.115377 0 0 0-1.3358-.8926c-.4996-.2069-1.0351-.3133-1.5758-.3133-.9628.0015-1.895.3388-2.6357.9539l-5.5377 4.6149a5.12526 5.12526 0 0 0-1.3675 1.7691c-.3201.6831-.4856 1.4284-.4845 2.1828v1.8579c-.0371-.0059-.074-.013-.1112-.0182l-.1493-.0228c-4.9484-.7056-9.972-.7049-14.9202.0019l-.1213.0185c-.0425.0061-.0844.0139-.1265.0208v-1.8581c.0011-.7542-.1643-1.4994-.4843-2.1824-.32-.683-.7868-1.287-1.367-1.7689L6.75131 13.809c-.74047-.614-1.67186-.9506-2.63378-.9519-.54074 0-1.07619.1064-1.57578.3133a4.116565 4.116565 0 0 0-1.33588.8926c-.382353.3823-.685642.8363-.892544 1.3359-.206901.4995-.31336 1.035-.313297 1.5757v5.0577a7.022938 7.022938 0 0 0 .534346 2.7073c.355402.8583.877525 1.6375 1.536135 2.2925l1.78666 1.786Zm62.93453 42.112c1.2714.8456 2.166 2.1506 2.4964 3.6413H59.2833c.3303-1.4907 1.225-2.7956 2.4964-3.6411l.3238-.2161h4.3644l.3238.2159ZM63 68.1428V7.71428h2.5714V68.1428H63ZM50.1429 5.14285c-.341 0-.6681-.13545-.9092-.37657-.2411-.24112-.3766-.56815-.3766-.90914 0-.34099.1355-.66802.3766-.90914.2411-.24111.5682-.37657.9092-.37657h15.4285v2.57142H50.1429ZM47.5714 30.8571h7.7143v2.5715h-7.7143v-2.5715Zm0 11.5715V36h7.7143v6.4286c0 1.0229-.4064 2.004-1.1297 2.7274-.7234.7233-1.7044 1.1297-2.7274 1.1297s-2.0041-.4064-2.7274-1.1297c-.7234-.7234-1.1298-1.7045-1.1298-2.7274ZM11.5715 74.5714H9.00002v-.982c-.0009-.2388.06513-.4731.19059-.6764.12547-.2032.30536-.3673.51929-.4735l1.1509-.5753c.1339-.0672.2551-.1572.358-.266l.3527.7054v2.2678Zm19.2857-5.4465-1.15 2.3c-.0893.1786-.1358.3754-.1358.5751v2.5714H27V72c0-.1997-.0465-.3965-.1358-.5751l-1.1499-2.3v-.9821h5.1429v.9821Zm0-3.5535h-5.1429V63h5.1429v2.5714Zm3.8571 9h-2.5714v-2.2678l.1003-.2008 1.591.5304c.2562.0852.4791.2488.6371.4678.1579.2189.243.482.243.752v.7184Zm-.2571-7.2-1.0286.7714v-2.5714h2.3482c-.2534.7167-.7124 1.3428-1.3196 1.8Zm-1.9378-11.1765 3.1034 3.1033c.12.1192.2151.2611.2798.4173.0648.1562.0979.3238.0974.4929V63h-2.5714v-1.2857c0-.341-.1355-.6681-.3766-.9092-.2411-.2411-.5681-.3766-.9091-.3766h-7.7143c-.341 0-.668.1355-.9091.3766-.2412.2411-.3766.5682-.3766.9092v7.7142c0 .1997.0465.3966.1358.5751l1.1499 2.3v2.2678h-5.1429v-2.2678l1.1499-2.3c.0894-.1785.1359-.3754.1358-.5751V63c0-.341-.1354-.668-.3765-.9092-.2411-.2411-.5682-.3765-.9092-.3765-.341 0-.668.1354-.9091.3765C18.1355 62.332 18 62.659 18 63v6.1249l-1.1499 2.3c-.0893.1786-.1358.3754-.1358.5751v2.5714h-2.5714V72c0-.1997-.0465-.3965-.1358-.5751l-1.1499-2.3V63c0-.341-.1355-.668-.3766-.9092-.2411-.2411-.5682-.3765-.9091-.3765-.341 0-.6681.1354-.9092.3765-.2411.2412-.3766.5682-.3766.9092v5.8961l-1.44205-1.4423c-.72061-.7246-1.12641-1.7042-1.12934-2.7262v-4.5192c-.00046-.1691.03264-.3367.09739-.4929s.15985-.2981.27981-.4173l3.10339-3.1033c.1231-.1232.2199-.2701.2846-.4317l1.4524-3.631a5.46886 5.46886 0 0 0 2.0203 1.4504c.7759.3219 1.6155.4606 2.4537.4056.8382-.0551 1.6524-.3025 2.3795-.7232.7272-.4206 1.3476-1.0031 1.8132-1.7023l.2586-.3878.2584.3878c.4656.6992 1.086 1.2817 1.8132 1.7023.7271.4207 1.5413.6681 2.3796.7232.8382.055 1.6778-.0837 2.4537-.4056a5.46886 5.46886 0 0 0 2.0203-1.4504l1.4524 3.631c.0647.1616.1615.3085.2846.4317Zm-12.0375-7.5922-1.0226 1.5337c-.3454.5184-.8484.9118-1.4347 1.1222-.5863.2104-1.2247.2265-1.8209.046-.5962-.1805-1.1184-.5481-1.4896-1.0483-.3711-.5003-.5714-1.1067-.5712-1.7296v-1.9106c.0009-.7693.3069-1.5069.8509-2.0509s1.2816-.85 2.0509-.8509h1.1765c-.336.9486-.2877 1.991.1347 2.9045.4224.9134 1.1853 1.6255 2.1257 1.9839h.0003ZM20.5714 45c0-.2543.0755-.5029.2167-.7143.1413-.2115.3421-.3762.577-.4736.235-.0973.4935-.1227.7429-.0731.2494.0496.4785.172.6583.3518.1798.1799.3023.4089.3519.6583.0496.2495.0241.508-.0732.7429s-.2621.4357-.4735.577c-.2115.1413-.46.2167-.7143.2167-.3409-.0004-.6677-.136-.9088-.377-.241-.241-.3766-.5678-.377-.9087Zm4.9218-1.2857h1.1764c.7693.0009 1.5069.3069 2.0509.8509s.8501 1.2816.8509 2.0509v1.9106c0 .6228-.2004 1.229-.5715 1.7292-.3711.5001-.8933.8676-1.4894 1.0481-.596.1804-1.2343.1644-1.8206-.0459-.5862-.2102-1.0892-.6035-1.4347-1.1217l-1.0225-1.5337c.9404-.3584 1.7033-1.0705 2.1257-1.9839.4224-.9135.4707-1.9559.1348-2.9045Zm6.6497-21.3365c-.0007-.3773.082-.7501.242-1.0918.1601-.3418.3937-.6439.684-.8849l5.536-4.6138c.2788-.2313.6296-.3582.9919-.3587.203-.0001.4041.0399.5917.1176.1876.0776.3581.1915.5016.3351.1436.1436.2575.314.3352.5016.0776.1876.1176.3887.1176.5917v5.0577c.0016.591-.1141 1.1765-.3403 1.7225-.2262.5461-.5585 1.0418-.9776 1.4585l-2.1632 2.1632c-.2409.2412-.3762.5683-.3761.9092v5.5286c.0014.4181-.1144.8283-.3342 1.1841-.2198.3558-.5348.6429-.9094.8288l-1.3278.6639v-6.2077c-.0003-.459-.0518-.9165-.1538-1.364l3.7538-5.0051c.1669-.2226.2571-.4933.2571-.7715v-2.5714c0-.341-.1354-.668-.3765-.9091-.2412-.2411-.5682-.3766-.9092-.3766-.341 0-.668.1355-.9091.3766-.2411.2411-.3766.5681-.3766.9091v2.1428l-2.7246 3.6322c-.1112-.1315-.2272-.2599-.3503-.3832l-.0225-.0225a6.114537 6.114537 0 0 0-.7597-.6407v-2.9222Zm-19.5353 5.4044.0225-.0225c.5441-.5435 1.2506-.8949 2.0123-1.0011l.1239-.019c4.6991-.6707 9.4697-.6714 14.169-.0019l.1519.0231c.756.1088 1.4566.4592 1.997.9989l.0225.0225c.3296.3277.5908.7175.7686 1.1468.1779.4293.2688.8897.2676 1.3544v11.8975l-.7028 1.7569c-.4757-.8472-1.1683-1.5526-2.0066-2.0438-.8384-.4911-1.7923-.7504-2.7639-.7512h-9.6249c-.9716.0008-1.9255.2601-2.7639.7512-.8383.4912-1.5309 1.1966-2.0065 2.0438l-.7028-1.7569V30.2834c-.0013-.4647.0896-.9251.2675-1.3544.1778-.4293.4391-.8191.7686-1.1468ZM2.57146 16.9746c-.00005-.203.03992-.4041.1176-.5917s.19156-.358.33514-.5016c.14357-.1436.31402-.2575.50162-.3351.1876-.0777.38866-.1177.59171-.1176.36144.0006.71139.1271.98968.3577l5.53899 4.6162c.29.2409.5233.5429.6833.8843.1599.3415.2425.714.242 1.091v2.9223c-.2703.1927-.5244.4072-.7597.6413l-.0225.0225c-.1231.1232-.2392.2516-.3504.3831l-2.72459-3.6328v-2.1428c0-.341-.13546-.668-.37658-.9091-.24111-.2411-.56814-.3766-.90913-.3766s-.66802.1355-.90914.3766c-.24112.2411-.37658.5681-.37658.9091v2.5714c0 .2782.09023.5489.25715.7715l3.7538 5.0051c-.10196.4475-.15355.905-.15381 1.364v6.2077l-1.32717-.6636c-.37472-.1859-.68989-.473-.9098-.8288a2.239414 2.239414 0 0 1-.33445-1.1844v-5.5286c0-.1688-.03325-.336-.09786-.492-.06461-.156-.15931-.2978-.2787-.4172l-2.16273-2.1632a4.467771 4.467771 0 0 1-.97758-1.4585 4.468793 4.468793 0 0 1-.34027-1.7225v-5.0577Z" fill="#000"/><path d="M52.7143 43.7143v-1.2857H54v-2.5715h-1.2857v-1.2857h-2.5714v1.2857h-1.2858v2.5715h1.2858v1.2857h2.5714ZM45 51.4286h2.5714V54H45v-2.5714ZM45 56.5714h2.5714v5.1429H45v-5.1429Z" fill="#000"/></svg>