<svg width="78" height="78" fill="none" xmlns="http://www.w3.org/2000/svg"><path d="M39.6124 5.71289H26.2061c-1.2622 0-2.2852-1.02296-2.2852-2.28516 0-1.26219 1.023-2.28515 2.2852-2.28515h13.4063c1.2621 0 2.2851 1.02296 2.2851 2.28515 0 1.2622-1.023 2.28516-2.2851 2.28516ZM27.5772 51.6445h10.6641v4.5703H27.5772v-4.5703Z" fill="#716680"/><path d="M26.8155 5.71289H39.003v6.32231H26.8155V5.71289Z" fill="#D6CFC4"/><path d="M34.4327 5.71289h4.5703v6.32231h-4.5703V5.71289Z" fill="#C4BEB4"/><path d="M68.8612 30.6223v32.6004h-9.1419V30.927c0-3.0296-2.4559-5.485-5.4855-5.485h-9.1383v-9.1412h9.443c7.9099 0 14.3227 6.4121 14.3227 14.3215Z" fill="#716680"/><path d="M54.5385 16.3008h-4.5703c7.9099 0 14.3226 6.4121 14.3226 14.3215v32.6004h4.5704V30.6223c0-7.9094-6.4128-14.3215-14.3227-14.3215Z" fill="#635870"/><path d="M55.834 76.8574H22.166c-5.0059 0-9.0644-4.0585-9.0644-9.0644h51.7968c0 5.0059-4.0585 9.0644-9.0644 9.0644Z" fill="#716680"/><path d="M60.3281 67.793c0 5.0059-4.0585 9.0644-9.0644 9.0644h4.5703c5.0059 0 9.0644-4.0585 9.0644-9.0644h-4.5703Z" fill="#635870"/><path d="M42.0499 51.6445H23.7686c-1.6829 0-3.0469-1.3639-3.0469-3.0468V15.082c0-1.6829 1.364-3.0468 3.0469-3.0468h18.2813c1.6829 0 3.0468 1.3639 3.0468 3.0468v33.5157c0 1.6829-1.3639 3.0468-3.0468 3.0468Z" fill="#E8E1D5"/><path d="M42.0499 12.0352h-4.5716c1.6824 0 3.0469 1.3639 3.0469 3.0468v33.5157c0 1.6829-1.3645 3.0468-3.0469 3.0468h4.5716c1.6829 0 3.0468-1.3639 3.0468-3.0468V15.082c0-1.6829-1.3639-3.0468-3.0468-3.0468Z" fill="#D6CFC4"/><path d="M51.1893 20.8003c0 3.3652-2.7285 6.0937-6.0938 6.0937-3.3658 0-6.0937-2.7285-6.0937-6.0937 0-3.3653 2.7279-6.0938 6.0937-6.0938 3.3653 0 6.0938 2.7285 6.0938 6.0938Z" fill="#FFBD54"/><path d="M47.3807 20.8003c0 1.2622-1.0236 2.2851-2.2852 2.2851-1.2622 0-2.2851-1.0229-2.2851-2.2851s1.0229-2.2852 2.2851-2.2852c1.2616 0 2.2852 1.023 2.2852 2.2852Z" fill="#FF573D"/><path d="M74.5723 67.793H3.42773c-1.26219 0-2.28515-1.023-2.28515-2.2852 0-1.2622 1.02296-2.2851 2.28515-2.2851H74.5723c1.2622 0 2.2851 1.0229 2.2851 2.2851s-1.0229 2.2852-2.2851 2.2852Z" fill="#E8E1D5"/><path d="M74.5723 63.2227H70.002c1.2621 0 2.2851 1.0229 2.2851 2.2851s-1.023 2.2852-2.2851 2.2852h4.5703c1.2622 0 2.2851-1.023 2.2851-2.2852 0-1.2622-1.0229-2.2851-2.2851-2.2851Z" fill="#D6CFC4"/><path d="M45.0955 24.228c1.89 0 3.4278-1.5377 3.4278-3.4277 0-1.89-1.5383-3.4277-3.4278-3.4277-1.89 0-3.4277 1.5377-3.4277 3.4277 0 1.89 1.5371 3.4277 3.4277 3.4277Zm0-4.5703c.6296 0 1.1426.5124 1.1426 1.1426 0 .6302-.513 1.1426-1.1426 1.1426-.6302 0-1.1425-.5124-1.1425-1.1426 0-.6302.5123-1.1426 1.1425-1.1426Z" fill="#000"/><path d="M74.5723 62.0801h-4.5686v-.5838c0-.6314-.5117-1.1426-1.1425-1.1426-.6314 0-1.1426.5112-1.1426 1.1426v.5838h-6.8573V30.9276c0-3.6551-2.9731-6.6288-6.6269-6.6288h-2.8077c.5761-1.0378.9046-2.2304.9046-3.4985 0-1.211-.3006-2.353-.8284-3.3569h3.0362c7.2672 0 13.1795 5.9122 13.1795 13.1795v26.0234c0 .6314.5112 1.1426 1.1426 1.1426.6308 0 1.1425-.5112 1.1425-1.1426V30.6229c0-8.5277-6.9376-15.4647-15.4646-15.4647h-4.9203c-1.0235-.8224-2.275-1.3717-3.6431-1.5389-.5969-1.6056-2.1459-2.7267-3.9258-2.7267h-1.9043V6.81381c1.6376-.25708 2.8945-1.67756 2.8945-3.38608C43.0401 1.53772 41.5024 0 39.6124 0H26.2061c-1.89 0-3.4277 1.53772-3.4277 3.42773 0 1.70852 1.2568 3.129 2.8945 3.38608v4.07879h-1.9043c-2.3101 0-4.1895 1.8793-4.1895 4.1894v4.4055c0 .6308.5118 1.1426 1.1426 1.1426s1.1426-.5118 1.1426-1.1426V15.082c0-1.0503.8546-1.9043 1.9043-1.9043h18.2813c.5349 0 1.0229.2226 1.371.5838-3.1849.7576-5.5617 3.6247-5.5617 7.0388 0 3.6021 2.6452 6.5966 6.0949 7.1453v20.6521c0 1.0503-.8539 1.9043-1.9042 1.9043H23.7686c-1.0497 0-1.9043-.854-1.9043-1.9043V24.356c0-.6314-.5118-1.1426-1.1426-1.1426s-1.1426.5112-1.1426 1.1426v24.2417c0 2.3101 1.8794 4.1894 4.1895 4.1894h2.666v3.4277c0 .6314.5118 1.1426 1.1426 1.1426h10.6641c.6308 0 1.1425-.5112 1.1425-1.1426v-3.4277h2.6661c2.3101 0 4.1894-1.8793 4.1894-4.1894V27.9456c1.1866-.1899 2.2786-.6677 3.1992-1.3616h4.7959c2.394 0 4.3418 1.9483 4.3418 4.3436v31.1525H3.42773C1.53772 62.0801 0 63.6178 0 65.5078c0 1.89 1.53772 3.4277 3.42773 3.4277h8.59667C12.5945 74.0278 16.9244 78 22.166 78h33.668c5.2416 0 9.5715-3.9722 10.1416-9.0645h8.5967c1.89 0 3.4277-1.5377 3.4277-3.4277 0-1.89-1.5377-3.4277-3.4277-3.4277ZM25.0635 3.42773c0-.6302.5124-1.14257 1.1426-1.14257h13.4063c.6302 0 1.1425.51237 1.1425 1.14257 0 .63021-.5123 1.14258-1.1425 1.14258H26.2061c-.6302 0-1.1426-.51237-1.1426-1.14258Zm2.8946 7.46487V6.85547h9.9023v4.03713h-9.9023Zm9.1406 44.1797h-8.3789v-2.2852h8.3789v2.2852Zm3.0457-34.272c0-2.7303 2.2208-4.9512 4.9511-4.9512 2.7297 0 4.9512 2.2209 4.9512 4.9512 0 2.7267-2.2155 4.9446-4.9405 4.9506h-.0196c-2.7261-.0042-4.9422-2.2233-4.9422-4.9506Zm34.4279 45.8501H20.7188c-.6308 0-1.1426.5112-1.1426 1.1426 0 .6314.5118 1.1425 1.1426 1.1425h42.9537c-.5558 3.8289-3.8585 6.7793-7.8385 6.7793H22.166c-3.98 0-7.2827-2.9504-7.8385-6.7793h1.5412c.6314 0 1.1426-.5111 1.1426-1.1425 0-.6314-.5112-1.1426-1.1426-1.1426H3.42773c-.6302 0-1.14257-.5124-1.14257-1.1426 0-.6302.51237-1.1426 1.14257-1.1426H74.5723c.6302 0 1.1425.5124 1.1425 1.1426 0 .6302-.5123 1.1426-1.1425 1.1426Z" fill="#000"/><path d="M24.6827 48.3691h16.4531c.6308 0 1.1426-.5111 1.1426-1.1425 0-.6314-.5118-1.1426-1.1426-1.1426H24.6827c-.6308 0-1.1426.5112-1.1426 1.1426 0 .6314.5118 1.1425 1.1426 1.1425ZM24.6827 44.1035h16.4531c.6308 0 1.1426-.5112 1.1426-1.1426 0-.6314-.5118-1.1425-1.1426-1.1425H24.6827c-.6308 0-1.1426.5111-1.1426 1.1425 0 .6314.5118 1.1426 1.1426 1.1426Z" fill="#000"/></svg>