<svg width="76" height="76" fill="none" xmlns="http://www.w3.org/2000/svg"><path d="M74.6719 18.9844v37.9687H56.9531v17.7188H18.9844V56.9531H1.26562V18.9844H18.9844V1.26562h37.9687V18.9844h17.7188Z" fill="#6B9777"/><path d="M72.1406 18.9844v37.9687H54.4219v17.7188H18.9844V56.9531H1.26562V18.9844H18.9844V1.26562h35.4375V18.9844h17.7187Z" fill="#85BC94"/><path d="M20.25 50.625h-1.2656c-1.0846 0-2.1379-.3625-2.9928-1.0299-.8548-.6674-1.462-1.6014-1.725-2.6535L12.6562 40.5l-.8385.8385c-.9187.9187-1.6109 2.0387-2.02181 3.2713a8.36932 8.36932 0 0 0-.34534 3.8303c.43146 3.0201 2.04495 5.7451 4.48555 7.5757.8121.6087 1.7998.9376 2.8147.9373H20.25V50.625Z" fill="#744630"/><path d="m53.1562 72.1406-1.2656 2.5313H18.9844V55.9565c-.0001-2.6928.4336-5.368 1.2846-7.9228l.6897-2.0678c1.1964-3.5928 3.2135-6.8575 5.8915-9.5349l.0934-.0933c2.2629-2.2591 4.0731-4.9301 5.333-7.869.4968-1.1581.9919-2.3161 1.3526-3.1562.3275-.7641.5427-1.2656.5427-1.2656H30.53c-1.1286-.0012-2.2246-.3791-3.1141-1.0737-.8896-.6947-1.5218-1.6664-1.7965-2.7611l-.6233-2.4933-.163-.6518c-.0932-.3732-.1002-.7627-.0205-1.1389.0798-.3763.2443-.7294.481-1.0326.2367-.3032.5394-.5484.885-.7171.3457-.1687.7252-.2564 1.1099-.2565h4.3521c.8161-2.4505 2.4822-4.52802 4.6971-5.85668l.5537-.33065c1.4234-.85365 3.0391-1.33464 4.6977-1.39852 1.6585-.06388 3.3064.29143 4.7913 1.03307l.0554.02848c1.6391.81961 3.0176 2.07943 3.981 3.6383.9634 1.5589 1.4738 3.3553 1.4738 5.1879V70.875l1.2656 1.2656Z" fill="#F3AF3E"/><path d="M25.9453 74.6719c-1.51-.0017-2.9576-.6023-4.0253-1.67-1.0677-1.0677-1.6683-2.5154-1.67-4.0253v-.9493c.0021-.8837.2089-1.755.6042-2.5455.3952-.7905.9682-1.4787 1.6739-2.0107.8627-.6501 1.563-1.4913 2.0461-2.4574.4831-.9662.7358-2.0312.7383-3.1114v-.9492c0-.3356.1333-.6576.3707-.8949.2373-.2374.5593-.3707.8949-.3707.3357 0 .6576.1333.895.3707.2373.2373.3707.5593.3707.8949v.9492c-.0036 1.473-.3482 2.9252-1.0069 4.2427-.6588 1.3175-1.6137 2.4645-2.79 3.3511-.3921.2956-.7104.6779-.93 1.1171-.2195.4391-.3344.9232-.3357 1.4141v.9493c0 .8391.3334 1.6439.9268 2.2373.5934.5934 1.3982.9267 2.2373.9267.8392 0 1.644-.3333 2.2373-.9267.5934-.5934.9268-1.3982.9268-2.2373v-.6328c.0011-1.0067.4016-1.9718 1.1133-2.6836.7118-.7117 1.6769-1.1122 2.6835-1.1133.3357 0 .6576.1333.895.3707.2373.2373.3707.5592.3707.8949s-.1334.6576-.3707.8949c-.2374.2374-.5593.3707-.895.3707-.3355.0004-.6572.1339-.8945.3711-.2372.2373-.3707.559-.3711.8946v.6328c-.0016 1.5099-.6022 2.9576-1.6699 4.0253-1.0678 1.0677-2.5154 1.6683-4.0254 1.67Z" fill="#CD761F"/><path d="m53.1562 72.1406-1.2656 2.5313H38.3532c-1.0477 0-2.0852-.2063-3.0532-.6072-.968-.401-1.8475-.9886-2.5883-1.7295-.7409-.7408-1.3286-1.6204-1.7295-2.5883-.4009-.968-.6072-2.0055-.6072-3.0532-.0004-1.4244.1983-2.8419.5901-4.2114l.1883-.6581c1.1256-3.943 3.7086-7.3104 7.2251-9.4194a3.433188 3.433188 0 0 0 1.302-1.4064l2.0851-4.1703h-4.2857c-.4344 0-.8646-.0855-1.2659-.2517-.4014-.1663-.7661-.4099-1.0733-.7171-.3072-.3072-.5508-.6719-.7171-1.0732-.1662-.4014-.2517-.8316-.2517-1.266V40.5h3.7969l.3148-.9445c.2911-.8743.7983-1.661 1.4744-2.2872.6762-.6261 1.4995-1.0713 2.3936-1.2945l2.1453-.5363v-3.7969l3.6972 2.7733c.899.6719 1.6278 1.5454 2.1278 2.5503 1.1629 2.3253 1.7684 4.8894 1.7687 7.4893V70.875l1.2656 1.2656Z" fill="#E08122"/><path d="m43.9267 46.4579-1.2656 1.2656c-.2377.2372-.5597.3703-.8955.3702h-.6328l.6328-1.2656h-4.2857c-.4808.0007-.9559-.1037-1.392-.3059a3.296086 3.296086 0 0 1-1.1329-.8648c.153-.0631.317-.0954.4825-.0949h5.8045l.8938-.8955c.2375-.2374.5596-.3709.8955-.3709.3358 0 .6579.1335.8954.3709.2375.2375.3709.5596.3709.8955 0 .3358-.1334.6579-.3709.8954ZM46.8281 58.2188c-.3356 0-.6576.1333-.8949.3706-.2374.2374-.3707.5593-.3707.895v9.1558c-.4823-.1961-.9981-.2967-1.5188-.2964h-1.1786l.1725-.2595c.5554-.8331.8743-1.8014.9226-2.8016.0483-1.0001-.1758-1.9946-.6484-2.8774a5.531276 5.531276 0 0 0-2.035-2.1351c-.859-.5144-1.8416-.786-2.8429-.7858h-.4651c-.3357 0-.6576.1333-.895.3707-.2373.2373-.3707.5592-.3707.8949s.1334.6576.3707.8949c.2374.2374.5593.3707.895.3707h.4651c.5432-.0002 1.0764.147 1.5425.4261.4661.279.8477.6793 1.1042 1.1583.2564.4789.378 1.0184.3518 1.5611-.0261.5426-.1991 1.0679-.5005 1.5199l-1.4855 2.226c-.1267.1907-.1994.4122-.2102.641-.0108.2287.0405.4561.1486.658.1081.2019.2689.3707.4652.4885.1964.1178.421.1802.65.1805h3.5437c.4027.0006.7886.1608 1.0733.4455.2847.2847.4449.6706.4455 1.0733v2.2781h2.5313V59.4844c0-.3357-.1334-.6576-.3707-.895-.2374-.2373-.5593-.3706-.895-.3706Z" fill="#CD761F"/><path d="M51.8906 16.4531v3.5912c0 .7969-.2507 1.5736-.7167 2.2201-.466.6465-1.1235 1.1299-1.8795 1.3819a3.79658 3.79658 0 0 1-2.4013 0c-.756-.252-1.4135-.7354-1.8795-1.3819-.466-.6465-.7167-1.4232-.7167-2.2201v-6.1224h5.0625l2.5312 2.5312Z" fill="#744630"/><path d="m40.1298 22.411-2.5312 2.5313c-.2377.2371-.5597.3703-.8955.3702h-3.0739c.3275-.7641.5427-1.2657.5427-1.2657H30.53c-1.1718.0011-2.3074-.4061-3.2115-1.1517.1649-.075.344-.1139.5252-.1139h8.3358l2.1594-2.161c.1176-.1176.2572-.2109.4109-.2745.1536-.0637.3183-.0964.4846-.0964.1663 0 .3309.0327.4846.0964.1536.0636.2932.1569.4108.2745.1176.1176.2109.2572.2745.4108.0636.1536.0964.3183.0964.4846 0 .1663-.0328.331-.0964.4846-.0636.1536-.1569.2932-.2745.4108ZM29.1094 13.9219v2.5312c0 .3357-.1334.6576-.3707.895-.2374.2373-.5593.3707-.8949.3707h-2.8477l-.163-.6518c-.0932-.3732-.1002-.7627-.0204-1.139.0797-.3762.2442-.7293.4809-1.0325s.5394-.5485.885-.7172c.3457-.1687.7252-.2564 1.1099-.2564h1.8209ZM33.0352 37.3736c-.235-.0002-.4652-.0658-.665-.1894a1.266034 1.266034 0 0 1-.4662-.5107c-.105-.2102-.1494-.4455-.1282-.6794.0211-.234.107-.4575.248-.6455 1.5094-2.0114 2.6841-4.2534 3.4785-6.6395.1062-.3184.3345-.5817.6347-.7318.3003-.1501.6479-.1748.9663-.0687.3185.1062.5818.3345.7319.6348.1501.3002.1748.6478.0687.9663-.8806 2.6441-2.1825 5.1287-3.8553 7.3577-.1179.1574-.2709.2851-.4468.373-.1759.0879-.37.1335-.5666.1332ZM24.0469 55.6875c-.3357 0-.6576-.1333-.895-.3707-.2373-.2373-.3707-.5593-.3707-.8949.0091-4.38 1.4293-8.6406 4.0501-12.15.2014-.2686.5012-.4461.8335-.4935.3323-.0475.6698.039.9383.2404.2686.2014.4461.5012.4936.8335.0474.3323-.039.6698-.2404.9383-2.2932 3.0708-3.5359 6.7988-3.5438 10.6313 0 .3356-.1333.6576-.3707.8949-.2373.2374-.5593.3707-.8949.3707ZM37.9688 16.4531c.6989 0 1.2656-.5666 1.2656-1.2656 0-.699-.5667-1.2656-1.2656-1.2656-.699 0-1.2657.5666-1.2657 1.2656 0 .699.5667 1.2656 1.2657 1.2656Z" fill="#D18D28"/><path d="M43.0312 41.7656c.699 0 1.2657-.5666 1.2657-1.2656 0-.699-.5667-1.2656-1.2657-1.2656-.6989 0-1.2656.5666-1.2656 1.2656 0 .699.5667 1.2656 1.2656 1.2656Z" fill="#CD761F"/><path d="M74.6719 17.7188H58.2188V1.26562c0-.33566-.1334-.657576-.3707-.894927C57.6107.133342 57.2888 0 56.9531 0H18.9844c-.3357 0-.6576.133342-.895.370693-.2373.237351-.3706.559267-.3706.894927V17.7188H1.26562c-.33566 0-.657576.1333-.894927.3706C.133342 18.3268 0 18.6487 0 18.9844v37.9687c0 .3357.133342.6576.370693.895.237351.2373.559267.3707.894927.3707H17.7188v16.4531c0 .3356.1333.6576.3706.8949.2374.2374.5593.3707.895.3707h37.9687c.3357 0 .6576-.1333.895-.3707.2373-.2373.3707-.5593.3707-.8949V58.2188h16.4531c.3356 0 .6576-.1334.8949-.3707.2374-.2374.3707-.5593.3707-.895V18.9844c0-.3357-.1333-.6576-.3707-.895-.2373-.2373-.5593-.3706-.8949-.3706ZM17.7214 55.6875h-.9709c-.7408.0001-1.4617-.2401-2.0544-.6845-2.1716-1.63-3.6074-4.0553-3.9921-6.7431-.2566-1.8306.2061-3.6893 1.2911-5.1858l1.0442 4.1748c.2913 1.1703.922 2.2284 1.8128 3.0413.8909.813 2.0021 1.3444 3.1941 1.5277-.2034 1.2801-.312 2.5735-.3248 3.8696ZM20.25 73.4062v-4.4296c-.0018.7483.1448 1.4897.4312 2.1811.2864.6914.707 1.3192 1.2375 1.847.142.1415.2912.2755.4471.4015H20.25Zm8.8594-5.0624v.6328c0 .8391-.3334 1.6439-.9268 2.2373-.5933.5934-1.3981.9267-2.2373.9267-.8391 0-1.6439-.3333-2.2373-.9267-.5934-.5934-.9268-1.3982-.9268-2.2373v-.9493c.0013-.4909.1162-.975.3357-1.4141.2196-.4392.5379-.8215.93-1.1171a9.491062 9.491062 0 0 0 2.795-3.3486c.659-1.3181 1.002-2.7715 1.0019-4.2452v-.9492c0-.3356-.1334-.6576-.3707-.8949-.2374-.2374-.5593-.3707-.895-.3707-.3356 0-.6576.1333-.8949.3707-.2374.2373-.3707.5593-.3707.8949v.9492c.0002 1.0807-.2513 2.1466-.7346 3.1132-.4833.9666-1.1851 1.8073-2.0498 2.4556-.7057.532-1.2786 1.2203-1.6738 2.0107-.3953.7905-.6021 1.6618-.6043 2.5455V55.9564c-.0001-1.7021.1825-3.3993.5449-5.0625.0017-.008.0036-.0158.0052-.024.1799-.8234.4034-1.6366.6695-2.4363l.6901-2.0685c1.138-3.4044 3.0499-6.4986 5.5855-9.0394l.0935-.0935c2.378-2.3719 4.2793-5.1776 5.6012-8.2652l1.5662-3.6545h1.697c.1662 0 .3308-.0327.4844-.0963.1535-.0636.2931-.1568.4106-.2744l2.5312-2.5312c.2374-.2374.3707-.5593.3707-.895 0-.3356-.1333-.6576-.3707-.8949-.2373-.2374-.5593-.3707-.8949-.3707-.3357 0-.6576.1333-.895.3707l-2.1604 2.1605H30.53c-.8469.001-1.6698-.2818-2.3373-.8031-.6676-.5213-1.1413-1.2512-1.3456-2.0731l-.2302-.9206h1.2269c.671-.0008 1.3144-.2678 1.7889-.7423.4746-.4745.7415-1.1179.7423-1.789v-1.2656h1.2656c.2657 0 .5246-.0835.7401-.2389.2155-.1553.3767-.3745.4607-.6265.7203-2.1628 2.1905-3.9967 4.1449-5.17005l.5566-.33223c1.2387-.7426 2.6444-1.16159 4.0875-1.21838 1.4432-.05678 2.8774.25046 4.1707.89343l.0675.03465c1.8081.89801 3.241 2.40568 4.0459 4.25708a1.266437 1.266437 0 0 0-.5551-.1304h-5.0625c-.3357 0-.6576.1334-.895.3707-.2373.2374-.3707.5593-.3707.895v6.1224c-.0026.8896.2298 1.7642.6736 2.5352.4438.771 1.0834 1.4111 1.8539 1.8556.7706.4445 1.6449.6777 2.5345.6759.8896-.0018 1.763-.2384 2.5318-.686v10.9211c-.5165-.7439-1.1482-1.4008-1.8714-1.9459l-3.6974-2.7721a1.265536 1.265536 0 0 0-1.3253-.1195 1.26482 1.26482 0 0 0-.5106.4666c-.1236.2-.1891.4304-.1891.6654v2.8088l-1.1865.2968c-1.1018.2723-2.1165.8195-2.9493 1.5906-.8328.7711-1.4565 1.7408-1.8126 2.8185l-.0264.0791h-2.8845c-.3357 0-.6576.1333-.895.3707-.2373.2373-.3707.5592-.3707.8949v3.0217c.0016 1.2122.484 2.3743 1.3412 3.2314.8573.8571 2.0195 1.3393 3.2317 1.3407h2.2387l-1.1691 2.338c-.1836.3679-.4685.6757-.8212.8871-3.7954 2.2702-6.582 5.9026-7.7914 10.1566l-.1882.6586a16.594181 16.594181 0 0 0-.6385 4.5599c.0004.3355.0189.6707.0555 1.0041-.0368.2133-.0553.4293-.0555.6457Zm-3.085-51.8907v-.0218c.001-.0533.0053-.1065.013-.1593.0022-.0158.0043-.0317.0071-.0465.0107-.0604.0257-.1198.0449-.178.0023-.0063.0053-.0125.0076-.0188.019-.0525.0414-.1037.0673-.1532.0076-.0147.0158-.0292.0234-.0436.0307-.0552.0654-.1081.1038-.1582.1179-.1518.2691-.2746.4418-.3588.1728-.0843.3626-.1278.5548-.1272h.5557v1.2656l-1.8194-.0002Zm24.6006.5242v3.067c0 .6714-.2667 1.3152-.7414 1.7899-.4747.4747-1.1185.7414-1.7898.7414-.6714 0-1.3152-.2667-1.7899-.7414-.4747-.4747-.7414-1.1185-.7414-1.7899v-4.8568h3.2728l1.7897 1.7898ZM29.5196 73.4062c.4959-.401.9216-.8819 1.2595-1.4228.3604.5145.7721.9912 1.2286 1.4228h-2.4881Zm21.5889 0h-3.0147V59.4844c0-.3357-.1334-.6576-.3707-.895-.2374-.2373-.5593-.3706-.895-.3706-.3356 0-.6576.1333-.8949.3706-.2374.2374-.3707.5593-.3707.895v9.156c-.4823-.1961-.9981-.2969-1.5187-.2966h-1.1787l.1726-.2589c.5554-.8331.8743-1.8014.9226-2.8015.0483-1.0002-.1757-1.9947-.6482-2.8775-.4725-.8828-1.1758-1.6208-2.0348-2.1353-.859-.5145-1.8415-.7863-2.8428-.7862h-.4657c-.3357 0-.6576.1333-.895.3707-.2373.2373-.3707.5592-.3707.8949s.1334.6576.3707.8949c.2374.2374.5593.3707.895.3707h.4657c.5431 0 1.0761.1474 1.542.4264.466.2791.8475.6794 1.1038 1.1583.2563.4788.3778 1.0183.3516 1.5608s-.1992 1.0677-.5005 1.5196l-1.4844 2.2266c-.1271.1906-.2001.4121-.2111.6409-.0111.2288.0401.4563.1482.6583s.269.3709.4655.4886c.1965.1177.4213.1799.6504.1799h3.5438c.4026.0006.7885.1608 1.0732.4455.2847.2847.4449.6706.4455 1.0733v1.0124h-7.2096c-1.7796-.002-3.4857-.7098-4.7441-1.9681-1.2583-1.2584-1.9662-2.9645-1.9682-4.7441 0-1.3069.1822-2.6075.5412-3.8641l.1881-.6586c1.0339-3.6364 3.4159-6.7415 6.6604-8.682.7657-.4587 1.3843-1.1267 1.7831-1.9252l1.9934-3.9867 1.1205-1.1206c.2374-.2373.3707-.5593.3707-.8949 0-.3357-.1333-.6576-.3707-.895-.2373-.2373-.5593-.3707-.8949-.3707-.3357 0-.6576.1334-.895.3707l-.8959.8956h-3.7624c-.5411-.0006-1.06-.2158-1.4427-.5983-.3827-.3826-.5981-.9014-.5989-1.4425v-1.7561h2.5313c.2656 0 .5245-.0835.74-.2388.2155-.1553.3767-.3745.4607-.6265l.3148-.9444c.2225-.6731.612-1.2788 1.1321-1.7605.5202-.4817 1.154-.8236 1.8422-.9938l2.1454-.5363c.2738-.0685.5168-.2265.6905-.449.1737-.2224.268-.4966.268-.7788v-1.2656l1.6724 1.2544c.74.5563 1.3411 1.2765 1.756 2.1041 1.0721 2.1506 1.6314 4.5203 1.6341 6.9233V70.875c0 .1662.0327.3308.0963.4843.0636.1536.1568.2931.2744.4107l.6206.6206-.5078 1.0156Zm22.2977-17.7187H56.9531c-.3356 0-.6576.1333-.8949.3707-.2374.2373-.3707.5593-.3707.8949v16.4531h-1.7491l.3498-.6995c.1188-.2376.1598-.5066.1172-.7688a1.265282 1.265282 0 0 0-.3545-.6922l-.8947-.8948V16.2237c.0073-2.0666-.5641-4.094-1.6496-5.8527-1.0855-1.75866-2.6416-3.17832-4.4923-4.09825l-.0689-.03528c-1.6748-.83679-3.5335-1.23778-5.4042-1.16588-1.8708.07189-3.6932.61435-5.2988 1.57721l-.5559.33223c-2.2018 1.32068-3.9256 3.30857-4.9212 5.67517h-3.4768c-.577.0001-1.1464.1317-1.6649.3847s-.9725.6209-1.3275 1.0757c-.3551.4548-.6018.9845-.7215 1.5489-.1197.5644-.1092 1.1486.0307 1.7084l.7861 3.1449c.3407 1.3699 1.1302 2.5862 2.2428 3.455 1.1125.8688 2.4839 1.3401 3.8955 1.3385h1.7224l-1.1391 2.6579c-1.195 2.7915-2.9143 5.3281-5.0645 7.4722l-.0935.0935c-2.8131 2.8195-4.9342 6.2527-6.1969 10.0301l-.69 2.0682c-.187.5615-.3544 1.1277-.502 1.6986-.7257-.0836-1.4085-.3867-1.9574-.8687-.5489-.4819-.9377-1.1199-1.1144-1.8287l-1.6102-6.4423c-.0543-.2173-.1653-.4163-.3217-.5766-.1564-.1604-.3525-.2764-.5683-.3362-.2159-.0598-.4437-.0612-.6603-.0042-.2166.0571-.4141.1706-.5725.3289l-.8385.8385c-1.05431 1.0596-1.84896 2.3489-2.32168 3.7669-.47273 1.418-.61067 2.9263-.40303 4.4065.37962 2.6632 1.59178 5.138 3.46311 7.0706H2.53125V20.25H18.9844c.3356 0 .6576-.1333.8949-.3707.2374-.2373.3707-.5593.3707-.8949V2.53125h35.4375V18.9844c0 .3356.1333.6576.3707.8949.2373.2374.5593.3707.8949.3707h16.4531v35.4375Z" fill="#000"/><path d="M32.2768 37.1205c.1329.0997.2842.1723.4452.2135.161.0413.3286.0504.4931.0269.1646-.0235.3229-.0792.4659-.1639.143-.0846.2679-.1967.3676-.3296 1.6729-2.229 2.9747-4.7136 3.8553-7.3577.1061-.3185.0814-.6661-.0687-.9663-.1501-.3003-.4133-.5286-.7318-.6348-.3185-.1061-.6661-.0814-.9663.0687-.3003.1501-.5286.4134-.6347.7319-.7945 2.386-1.9692 4.628-3.4786 6.6394-.2014.2685-.2879.6061-.2405.9384.0475.3322.225.6321.4935.8335ZM28.6031 42.0188c-.2685-.2014-.606-.2879-.9383-.2404-.3323.0474-.6321.2249-.8335.4935-2.6208 3.5094-4.041 7.77-4.0501 12.15 0 .3356.1334.6576.3707.8949.2374.2374.5593.3707.895.3707.3356 0 .6576-.1333.8949-.3707.2374-.2373.3707-.5593.3707-.8949.0079-3.8325 1.2506-7.5605 3.5438-10.6313.2014-.2685.2878-.606.2404-.9383-.0475-.3323-.225-.6321-.4936-.8335ZM37.9688 16.4531c.6989 0 1.2656-.5666 1.2656-1.2656 0-.699-.5667-1.2656-1.2656-1.2656-.699 0-1.2657.5666-1.2657 1.2656 0 .699.5667 1.2656 1.2657 1.2656ZM43.0312 41.7656c.699 0 1.2657-.5666 1.2657-1.2656 0-.699-.5667-1.2656-1.2657-1.2656-.6989 0-1.2656.5666-1.2656 1.2656 0 .699.5667 1.2656 1.2656 1.2656Z" fill="#000"/></svg>